<?xml version="1.0" standalone="no"?>
<!DOCTYPE svg PUBLIC "-//W3C//DTD SVG 20010904//EN"
 "http://www.w3.org/TR/2001/REC-SVG-20010904/DTD/svg10.dtd">
<svg version="1.0" xmlns="http://www.w3.org/2000/svg"
 width="1168.000000pt" height="1280.000000pt" viewBox="0 0 1168.000000 1280.000000"
 preserveAspectRatio="xMidYMid meet">
<metadata>
Created by potrace 1.15, written by Peter Selinger 2001-2017
</metadata>
<g transform="translate(0.000000,1280.000000) scale(0.100000,-0.100000)"
fill="#000000" stroke="none">
<path d="M2994 12789 c-4 -7 -10 -26 -14 -43 -4 -20 -12 -30 -21 -27 -64 17
-89 7 -89 -36 0 -38 15 -57 95 -123 46 -38 90 -85 116 -126 23 -36 60 -77 82
-92 36 -24 42 -34 53 -89 17 -84 59 -160 99 -179 39 -18 105 -81 105 -100 0
-10 -13 -14 -40 -14 -46 0 -51 -12 -15 -36 33 -21 66 -77 81 -133 8 -33 19
-50 40 -62 24 -14 29 -22 26 -50 -5 -55 16 -210 79 -594 85 -516 123 -715 176
-929 l48 -188 -23 -18 c-30 -25 -28 -36 13 -62 38 -26 50 -49 65 -125 27 -150
148 -288 487 -562 56 -45 112 -94 124 -109 29 -37 21 -74 -36 -173 -217 -376
-262 -555 -315 -1244 -13 -170 -26 -274 -33 -282 -9 -9 -28 -5 -82 19 -274
118 -631 199 -877 198 -84 0 -197 -25 -228 -50 -14 -11 -50 -32 -80 -45 -83
-37 -165 -81 -272 -147 -107 -66 -129 -84 -105 -94 19 -7 76 17 152 65 71 45
199 111 216 111 8 0 7 -5 -2 -16 -28 -34 -402 -240 -418 -230 -5 3 -7 15 -4
26 3 11 2 20 -1 20 -20 0 -119 -60 -256 -156 -85 -59 -200 -139 -255 -177
-123 -84 -128 -90 -120 -143 5 -38 3 -44 -25 -68 -29 -24 -70 -35 -70 -19 0 3
7 15 17 25 34 38 3 27 -73 -25 -44 -29 -119 -73 -168 -97 -74 -35 -104 -44
-178 -52 -49 -5 -110 -17 -136 -27 -26 -11 -89 -24 -139 -30 -109 -13 -166
-36 -212 -85 l-35 -36 -132 0 c-124 0 -133 -1 -168 -25 -85 -58 -153 -81 -312
-105 -68 -11 -134 -40 -134 -59 0 -15 24 -28 85 -46 33 -9 75 -26 93 -37 47
-29 90 -19 171 41 77 57 108 71 159 71 20 0 61 11 90 25 29 13 93 31 142 40
124 22 197 49 286 110 56 38 76 40 119 11 30 -21 50 -26 98 -26 49 0 57 2 48
14 -15 18 -5 41 27 63 22 14 41 17 102 13 289 -17 357 1 389 102 15 45 72 99
222 210 349 259 851 552 1007 588 26 7 47 2 95 -20 161 -73 425 -140 622 -160
146 -14 207 -26 260 -49 88 -39 97 -89 60 -361 -21 -160 -28 -260 -35 -560 -5
-201 -14 -399 -21 -440 -25 -171 -68 -301 -204 -620 -258 -604 -348 -938 -375
-1405 -14 -251 -15 -258 -56 -307 -30 -35 -35 -47 -29 -72 18 -87 15 -115 -34
-326 -101 -434 -156 -790 -236 -1510 -14 -129 -32 -262 -40 -295 -30 -133 -47
-190 -70 -235 -13 -26 -36 -89 -50 -140 -14 -51 -44 -126 -66 -167 -21 -41
-39 -83 -39 -93 0 -59 -75 -197 -164 -300 -34 -39 -46 -62 -44 -80 3 -24 6
-25 66 -24 l63 1 -7 -53 c-7 -57 11 -104 41 -104 22 0 26 13 41 166 9 93 21
162 33 188 10 22 22 51 25 63 4 13 38 62 77 110 71 90 73 97 69 172 l-2 44 31
-6 c26 -5 31 -3 31 12 0 11 6 21 12 23 10 4 10 10 0 32 -36 80 6 205 73 218
17 3 20 11 20 63 1 48 9 77 42 150 66 143 73 178 88 440 28 463 43 575 134
995 87 400 134 541 207 623 19 20 34 48 34 60 0 13 23 70 50 127 89 180 110
273 155 662 39 340 81 566 125 664 35 80 44 59 55 -126 23 -393 191 -1150 362
-1619 45 -126 191 -465 255 -596 46 -93 294 -569 375 -720 82 -153 165 -278
199 -300 42 -27 69 -13 106 57 59 111 79 106 155 -37 87 -162 110 -174 183
-100 24 25 50 45 56 45 7 0 20 -24 30 -52 24 -74 50 -124 69 -132 57 -22 108
8 160 94 36 59 75 90 112 90 10 0 38 -11 63 -24 31 -16 51 -21 66 -16 30 12
74 68 74 96 0 17 6 24 18 24 23 0 54 -33 81 -88 35 -69 78 -51 152 65 103 163
426 897 534 1213 17 52 48 136 67 185 73 189 108 312 127 452 10 76 44 246 75
378 30 133 80 382 111 555 121 681 151 739 205 389 12 -78 35 -172 60 -244 99
-287 358 -838 451 -961 75 -99 86 -129 103 -297 9 -81 20 -157 26 -167 6 -11
13 -47 16 -82 9 -102 57 -374 88 -493 17 -69 59 -472 85 -818 10 -132 22 -242
28 -248 8 -8 21 -7 46 2 19 6 41 9 50 6 8 -3 37 -47 62 -97 26 -49 59 -99 74
-110 47 -36 51 -41 51 -66 0 -41 38 -102 79 -129 37 -23 40 -28 45 -82 4 -32
16 -87 27 -123 21 -63 21 -68 5 -166 -9 -56 -16 -135 -16 -175 0 -70 -3 -80
-57 -188 -38 -76 -58 -130 -61 -163 -5 -48 -4 -50 19 -46 21 3 56 40 100 107
22 35 39 18 39 -37 0 -49 21 -92 45 -92 7 0 16 8 19 18 12 41 9 539 -4 613
-12 66 -11 81 3 124 10 27 17 60 17 73 0 47 -24 104 -52 125 -21 16 -28 29
-28 54 0 55 -25 100 -64 117 -41 17 -64 49 -80 113 -11 46 -15 50 -74 78 -34
17 -62 33 -62 37 0 3 13 9 30 13 16 4 32 10 35 15 3 5 -3 35 -14 67 -35 105
-89 451 -141 908 -17 149 -42 353 -55 455 -14 102 -32 248 -40 325 -19 166
-50 360 -70 430 -8 28 -22 138 -30 245 -18 225 -28 265 -99 409 -29 58 -59
124 -66 145 -7 21 -38 93 -70 160 -31 67 -66 150 -78 186 -12 36 -48 115 -82
175 -33 61 -69 135 -81 165 -11 30 -55 120 -98 200 -43 80 -105 197 -139 260
l-60 115 -11 630 c-6 347 -16 694 -22 772 -15 193 -13 201 65 251 58 38 72 43
180 57 64 8 138 15 163 15 64 0 232 59 383 133 l125 62 106 3 c94 4 109 2 125
-14 11 -11 51 -27 89 -36 108 -26 297 -96 398 -147 148 -75 577 -314 710 -394
175 -107 213 -122 345 -137 68 -7 97 -17 150 -47 65 -36 70 -37 192 -43 l126
-5 54 -39 c67 -48 147 -86 183 -86 15 0 73 -24 130 -54 57 -29 117 -57 134
-60 57 -13 166 -101 209 -168 25 -39 50 -48 72 -26 19 19 14 42 -19 87 -34 48
-32 66 4 33 36 -34 97 -25 97 14 0 20 -54 53 -138 83 -77 28 -105 42 -170 83
-22 14 -61 23 -115 29 -92 9 -125 27 -142 80 -17 50 -56 68 -174 79 -110 10
-163 29 -236 81 -42 30 -53 33 -161 41 -63 5 -132 14 -152 21 -48 16 -54 44
-13 58 40 14 33 24 -32 44 -84 28 -231 103 -304 156 -37 27 -73 49 -79 49 -7
0 -31 16 -55 36 -50 42 -94 65 -169 89 -52 16 -111 44 -205 93 -22 12 -69 35
-105 52 -36 17 -76 37 -90 46 -14 8 -80 41 -148 74 -67 32 -125 66 -128 74 -7
17 -50 31 -134 41 -30 3 -95 20 -145 37 -80 27 -106 31 -240 35 -222 7 -289
-7 -511 -108 -192 -87 -284 -135 -284 -150 0 -5 -15 -15 -32 -22 -18 -8 -39
-21 -47 -30 -19 -24 -29 -21 -23 8 2 14 0 44 -6 68 -6 23 -23 152 -37 287 -29
280 -52 402 -100 546 -50 151 -152 344 -298 565 l-18 26 68 44 c199 127 585
595 728 883 46 94 48 99 42 162 -8 78 -4 101 83 474 37 162 96 423 130 580 75
346 65 311 101 356 18 23 27 44 23 53 -22 51 -18 57 63 111 119 80 258 195
356 292 88 89 102 98 110 76 3 -9 21 -5 65 16 78 38 109 66 123 119 11 40 34
69 75 93 19 11 19 12 -1 34 l-20 22 40 35 c131 114 127 109 123 144 -4 42 -26
48 -67 18 -29 -21 -32 -21 -49 -6 -40 37 -73 10 -137 -111 -32 -61 -51 -84
-90 -110 -89 -58 -116 -83 -152 -141 -20 -31 -64 -85 -99 -121 -34 -36 -80
-83 -101 -106 -35 -37 -44 -42 -103 -48 -36 -4 -81 -11 -102 -17 -44 -11 -98
-69 -98 -105 0 -14 -6 -37 -14 -53 -22 -41 -92 -101 -120 -101 -13 0 -28 -6
-33 -12 -6 -7 -20 -76 -32 -153 -12 -77 -40 -219 -61 -315 -21 -97 -41 -198
-43 -225 -3 -28 -12 -67 -20 -88 -9 -21 -28 -84 -43 -140 -15 -56 -33 -114
-40 -129 -8 -15 -23 -80 -34 -145 -11 -65 -25 -133 -31 -150 -12 -36 -52 -73
-79 -73 -11 0 -27 -19 -43 -52 -14 -29 -68 -98 -118 -153 -111 -120 -231 -269
-301 -373 -145 -217 -272 -365 -323 -378 -19 -5 -38 0 -66 16 -22 12 -95 46
-162 75 l-122 54 -7 113 -6 113 -62 122 -62 122 39 33 c212 184 209 180 285
332 39 77 100 188 136 245 l65 103 -7 122 c-12 203 -45 331 -84 324 -25 -5
-27 -92 -6 -201 28 -148 10 -232 -85 -381 -21 -34 -51 -86 -66 -116 -15 -30
-29 -57 -31 -59 -2 -3 -15 6 -29 19 l-26 24 43 37 c42 36 43 38 41 93 -2 53 0
57 27 71 40 21 56 81 38 138 -11 35 -17 42 -38 42 -22 0 -25 -4 -22 -32 2 -18
1 -33 -2 -33 -4 0 -34 11 -68 25 -111 45 -159 25 -95 -38 53 -53 93 -146 69
-161 -5 -3 -31 2 -60 10 -54 16 -92 8 -92 -20 0 -15 27 -40 51 -49 11 -3 22
-31 33 -77 19 -88 19 -90 3 -90 -22 0 -47 -34 -47 -63 0 -24 -4 -27 -34 -27
-47 0 -66 -22 -66 -76 0 -54 -14 -84 -40 -84 -10 0 -58 20 -107 44 -169 85
-308 112 -522 103 -147 -6 -271 -32 -417 -85 l-81 -29 -70 57 c-73 62 -112
110 -138 174 -9 21 -28 56 -42 77 -24 36 -25 43 -15 78 15 49 15 108 1 117 -7
4 -26 7 -43 8 l-31 1 0 60 c0 42 7 72 22 102 12 23 18 45 13 48 -16 10 -84
-25 -123 -63 -37 -36 -39 -36 -53 -18 -20 28 -18 38 21 89 48 62 60 96 42 115
-18 18 -44 6 -105 -50 -23 -21 -47 -36 -53 -32 -16 10 -1 94 22 126 24 35 24
55 -1 68 -37 20 -88 -8 -117 -64 -37 -72 -34 -229 7 -338 11 -31 39 -85 62
-119 22 -35 65 -109 95 -164 70 -129 132 -192 245 -250 148 -77 174 -110 131
-167 -62 -83 -140 -276 -158 -393 -11 -67 -24 -89 -68 -117 -52 -33 -188 -98
-202 -97 -16 1 -201 208 -254 284 -27 39 -75 117 -106 175 -86 158 -114 192
-254 311 -28 25 -30 30 -25 71 6 44 6 45 -24 51 -23 5 -36 16 -51 44 -49 97
-99 329 -187 858 -8 50 -23 142 -34 205 -11 63 -37 169 -59 235 -22 66 -45
161 -52 210 -14 107 -23 135 -43 135 -16 0 -46 37 -46 57 0 7 11 13 25 13 20
0 25 5 25 24 0 31 -15 42 -71 50 -55 8 -89 38 -73 63 11 18 21 24 68 42 40 16
21 32 -43 39 -28 2 -56 10 -62 18 -16 19 -2 52 24 56 40 6 31 34 -17 52 -50
19 -63 38 -39 58 14 11 9 15 -38 28 -46 13 -54 20 -57 42 -2 15 -12 30 -27 36
-13 6 -42 38 -64 70 -28 42 -51 64 -78 75 -64 25 -93 77 -93 166 0 76 -51 150
-76 110z m653 -1556 c-3 -10 -5 -4 -5 12 0 17 2 24 5 18 2 -7 2 -21 0 -30z
m48 -246 c15 -50 65 -371 65 -412 -1 -48 -20 20 -54 190 -44 218 -54 291 -38
281 6 -4 18 -30 27 -59z m1050 -434 c7 -77 8 -79 56 -123 26 -25 51 -57 55
-73 7 -29 40 -68 87 -102 24 -17 51 -71 74 -147 20 -68 -120 53 -183 157 -103
169 -174 293 -174 303 0 7 9 12 20 12 12 0 25 10 32 25 6 14 15 25 19 25 4 0
11 -35 14 -77z m1943 -427 c3 -13 -1 -17 -14 -14 -11 2 -20 11 -22 22 -3 13 1
17 14 14 11 -2 20 -11 22 -22z m-81 -101 c-35 -31 -63 -34 -47 -6 11 21 25 29
55 30 18 0 17 -2 -8 -24z m1263 -5 c0 -54 -79 -166 -122 -172 -12 -2 -26 -12
-32 -23 -6 -11 -29 -40 -51 -65 -23 -25 -82 -99 -132 -165 -50 -66 -102 -130
-116 -143 l-25 -24 -7 33 -7 33 -36 -40 c-82 -92 -137 -145 -140 -136 -15 45
247 411 397 555 97 93 127 113 191 123 30 5 44 13 47 25 7 26 33 24 33 -1z
m-1800 -70 l55 -17 -60 -8 c-69 -9 -102 -22 -88 -36 6 -6 57 -18 114 -28 57
-11 118 -25 134 -33 27 -12 20 -13 -90 -16 -185 -4 -178 -27 18 -62 63 -11
118 -20 121 -20 3 0 6 -5 6 -12 0 -8 -30 -9 -110 -4 -109 6 -160 2 -160 -15 0
-11 82 -34 198 -55 50 -9 95 -20 98 -25 3 -5 -58 -9 -143 -9 -219 0 -231 -23
-28 -55 115 -18 249 -55 228 -62 -7 -3 -43 1 -80 7 -38 7 -203 14 -369 17
l-301 5 -204 -42 c-238 -49 -227 -48 -229 -35 -1 6 24 18 57 28 84 26 175 69
165 79 -9 9 -140 -14 -189 -33 -32 -12 -66 -12 -58 1 4 6 30 22 58 36 82 41
114 69 120 106 4 18 9 43 13 56 6 22 6 22 -65 16 -39 -4 -71 -5 -71 -2 0 3 36
29 79 58 85 55 93 65 80 92 -12 22 -9 23 110 47 73 15 142 21 235 21 73 0 136
4 142 9 25 24 121 20 214 -9z m-2047 -100 c46 -36 262 -322 301 -397 9 -18 16
-42 16 -55 0 -13 12 -41 26 -61 14 -21 23 -41 21 -44 -9 -8 -95 42 -171 99
-161 121 -275 321 -252 443 8 40 22 44 59 15z m1252 -201 c0 -14 -90 -52 -109
-46 -6 2 11 18 39 36 50 32 70 35 70 10z m505 -181 c-184 -19 -385 -50 -470
-72 -91 -24 -121 -18 -53 10 87 37 336 72 503 72 l105 -1 -85 -9z m428 -23
c88 -20 97 -38 10 -20 -35 7 -94 16 -133 20 -79 7 -105 13 -105 24 0 10 144
-5 228 -24z m-45 -115 c103 -10 197 -30 197 -41 0 -4 -172 -9 -382 -11 -240
-3 -392 -8 -408 -15 l-25 -11 25 -6 c14 -3 158 -7 320 -10 318 -4 351 -8 600
-76 132 -36 160 -47 160 -61 0 -15 -94 -8 -288 23 -136 21 -144 23 -157 49
-11 21 -24 28 -59 33 -46 7 -96 0 -96 -14 0 -35 122 -80 285 -105 167 -26 525
-133 525 -157 0 -16 -151 -3 -315 27 -77 14 -151 25 -165 23 -25 -3 -25 -3 -4
-15 12 -7 56 -22 99 -33 91 -25 135 -47 135 -71 0 -22 -17 -28 -101 -35 -38
-4 -68 -9 -65 -11 2 -3 91 -26 198 -52 192 -48 348 -103 348 -123 0 -15 -116
-4 -270 26 -185 36 -244 42 -238 25 3 -8 54 -26 126 -44 104 -26 127 -36 157
-65 l34 -33 40 18 c35 15 46 16 93 5 78 -19 158 -50 158 -62 0 -19 -306 11
-439 44 -25 6 -69 24 -97 39 -50 28 -114 39 -114 19 0 -5 18 -14 39 -20 25 -6
42 -18 46 -30 9 -28 55 -45 197 -75 190 -40 204 -58 53 -70 -52 -4 -95 -10
-95 -15 0 -4 51 -17 113 -29 123 -24 204 -46 227 -61 13 -9 13 -11 0 -20 -20
-13 -40 -13 -214 5 -83 8 -159 12 -170 9 l-21 -7 21 -8 c12 -4 61 -15 110 -24
98 -18 244 -57 305 -81 45 -18 53 -39 12 -31 -79 17 -449 68 -471 65 -30 -4
-63 -45 -41 -52 8 -2 79 -9 159 -15 200 -15 369 -56 341 -84 -7 -7 -43 -6
-123 6 -137 21 -252 23 -246 5 3 -7 23 -16 45 -20 23 -4 59 -16 82 -27 22 -12
71 -25 108 -31 75 -10 187 -46 248 -78 l40 -21 -32 -1 c-18 0 -105 18 -194 40
-156 39 -252 50 -263 31 -10 -16 20 -30 140 -65 143 -41 286 -97 292 -114 4
-14 -19 -11 -178 29 -121 30 -315 57 -327 46 -14 -15 16 -28 137 -61 177 -49
522 -163 545 -180 20 -15 20 -15 0 -16 -12 0 -75 18 -140 40 -128 43 -315 85
-431 96 -72 6 -184 -9 -184 -26 0 -14 67 -27 170 -34 161 -10 380 -72 556
-157 88 -43 155 -89 129 -89 -5 0 -72 30 -149 66 -185 88 -257 111 -394 129
-186 25 -371 18 -454 -16 -73 -30 -10 -35 177 -14 50 5 50 5 19 -9 -17 -8
-100 -29 -185 -47 -279 -57 -268 -51 -479 -244 -73 -66 -147 -132 -165 -147
l-32 -28 -44 33 c-111 85 -297 174 -461 221 -271 78 -506 94 -698 47 -41 -10
-77 -17 -79 -15 -2 2 8 13 22 25 61 47 4 50 -86 4 -77 -39 -131 -29 -86 16 25
25 79 49 111 49 13 0 47 18 76 39 28 22 57 41 64 44 7 2 10 8 5 12 -4 5 -42 1
-85 -8 -122 -27 -174 -20 -134 16 10 9 67 38 126 64 60 26 111 54 114 62 5 15
2 14 -156 -21 -51 -11 -96 -18 -99 -14 -4 4 8 21 25 39 30 30 37 32 100 32 66
0 70 2 57 37 -5 13 6 20 52 37 32 12 72 28 88 36 29 15 28 15 -37 11 -37 -3
-108 -15 -158 -27 -68 -15 -95 -18 -103 -10 -16 16 11 39 96 81 39 19 70 40
67 45 -6 13 -59 11 -127 -5 -29 -7 -56 -10 -61 -6 -12 13 58 65 149 111 47 24
91 50 98 59 12 14 10 16 -12 16 -14 0 -55 -9 -92 -21 -75 -23 -96 -20 -88 11
8 30 50 61 167 124 58 31 108 61 111 65 2 5 -6 12 -20 15 -16 4 -25 13 -25 26
0 13 -7 20 -19 20 -25 0 -51 -26 -51 -51 0 -15 -17 -28 -66 -50 -36 -17 -73
-29 -81 -27 -42 8 109 131 230 188 37 17 67 36 67 41 0 5 -3 9 -7 9 -25 -1
-122 -33 -207 -69 -54 -23 -100 -40 -103 -38 -5 5 107 104 152 134 17 11 50
27 75 37 60 23 122 64 115 76 -12 20 -58 9 -129 -30 -92 -51 -172 -56 -118 -7
25 22 222 117 244 117 10 0 18 4 18 9 0 15 -33 18 -105 10 -76 -10 -103 0 -69
26 10 8 80 42 154 76 74 33 139 65 145 70 14 14 -57 11 -141 -7 -42 -8 -79
-12 -82 -9 -13 13 114 90 197 119 34 13 41 13 52 0 17 -21 66 -17 90 7 16 16
18 23 9 34 -9 11 -4 18 27 33 48 24 127 47 218 63 107 18 170 50 126 64 -23 7
-204 -32 -369 -79 -137 -40 -182 -46 -162 -21 18 22 108 62 202 89 313 90 836
145 1111 116z m402 -81 c39 -11 74 -25 80 -30 24 -23 -121 2 -173 30 -25 13
-20 35 6 27 10 -3 49 -15 87 -27z m253 -399 c83 -20 155 -50 168 -71 12 -20
-18 -27 -58 -13 -22 7 -79 18 -128 22 -90 9 -140 29 -140 56 0 31 47 32 158 6z
m228 -439 c53 -24 64 -41 27 -41 -31 0 -107 32 -117 49 -11 18 44 13 90 -8z
m1454 -700 c0 -16 -92 -92 -141 -116 -68 -35 -421 -117 -436 -102 -11 12 9 27
44 33 35 7 35 7 13 19 l-23 12 24 16 c25 15 291 105 389 131 64 16 130 20 130
7z m-4916 -225 c117 -39 236 -89 236 -100 0 -3 -25 -2 -55 1 -91 9 -69 -17 50
-62 13 -5 15 -9 7 -12 -19 -7 -274 45 -396 82 -61 18 -130 36 -153 40 -56 9
-73 29 -46 56 60 61 161 59 357 -5z m1146 -194 c0 -50 -5 -85 -14 -97 -13 -18
-14 -18 -24 1 -9 18 -2 106 13 153 14 44 25 18 25 -57z m105 33 c0 -16 -6 -30
-12 -32 -9 -3 -13 7 -13 32 0 25 4 35 13 33 6 -3 12 -17 12 -33z m119 -154
c15 -24 27 6 33 82 9 119 23 124 73 29 24 -47 29 -53 30 -31 0 36 32 74 54 66
9 -4 19 -20 22 -37 l6 -30 26 20 c31 25 51 25 59 3 14 -39 26 -46 43 -23 l16
21 27 -21 c15 -12 27 -30 27 -40 0 -31 17 -32 44 -3 l25 27 11 -28 c5 -15 10
-31 10 -35 0 -5 6 -14 13 -20 10 -8 19 -4 36 19 27 37 36 33 45 -19 l6 -40 57
-3 c47 -3 59 -7 75 -29 31 -42 44 -143 31 -254 -15 -122 -27 -143 -90 -147
-65 -4 -57 -22 13 -28 l56 -5 -4 -715 c-6 -1443 -3 -2450 10 -2581 17 -179 25
-450 13 -421 -6 12 -13 22 -15 22 -3 0 -15 -19 -27 -43 l-22 -42 -13 30 c-7
17 -14 39 -15 50 -1 11 -5 2 -10 -20 -9 -48 4 -171 37 -349 27 -146 30 -190
12 -184 -14 5 -22 33 -63 213 -35 152 -93 357 -105 369 -18 18 -11 -72 20
-251 32 -189 35 -212 21 -198 -13 14 -51 143 -51 173 0 15 -9 49 -19 77 -11
27 -44 126 -74 219 -52 165 -77 212 -77 146 0 -17 20 -119 44 -228 54 -243 61
-287 48 -278 -10 6 -99 273 -160 481 -37 124 -58 175 -72 175 -23 0 -21 -34 8
-108 16 -42 37 -108 45 -147 9 -38 30 -132 48 -207 17 -75 29 -145 25 -155 -6
-15 -8 -15 -16 -3 -6 8 -10 23 -10 33 0 10 -11 43 -25 73 -33 71 -127 338
-155 439 -23 84 -71 212 -95 255 -12 22 -13 17 -8 -52 5 -67 4 -78 -10 -78
-56 0 -112 183 -182 594 -48 284 -84 462 -98 494 -22 49 -20 -121 3 -273 11
-75 20 -162 20 -192 0 -30 7 -86 16 -123 18 -71 13 -123 -7 -87 -13 23 -86
368 -145 687 -46 252 -65 422 -85 772 -13 234 -7 1128 11 1408 12 193 35 418
48 465 28 101 34 -59 18 -540 -6 -215 -6 -268 4 -258 8 8 15 59 19 145 l6 133
62 5 c80 6 91 17 73 69 -8 25 -10 58 -6 89 7 58 -10 122 -24 87 -4 -11 -10
-50 -14 -87 -4 -36 -13 -74 -20 -84 -12 -16 -14 -16 -36 6 -24 24 -24 19 0
220 5 41 10 102 10 135 1 65 18 126 36 132 18 6 34 -53 34 -125 0 -39 4 -62 9
-56 18 19 40 111 38 159 -4 99 50 157 64 70 4 -22 5 -71 1 -109 -3 -47 -2 -67
5 -63 14 9 29 77 43 187 6 47 16 103 22 125 l11 40 12 -91 c6 -50 15 -96 19
-103z m-334 105 c0 -22 -11 -46 -21 -46 -10 0 -12 43 -2 53 11 12 23 8 23 -7z
m1460 -286 c14 -197 33 -198 55 -3 13 112 19 133 31 121 3 -4 10 -81 15 -172
9 -177 20 -219 61 -231 13 -4 35 -19 50 -32 27 -26 52 -27 87 -4 12 7 10 14
-8 36 -11 15 -21 40 -21 55 0 33 19 90 30 90 16 0 21 -41 30 -251 5 -119 11
-222 14 -230 2 -8 7 -27 10 -42 4 -15 10 -25 15 -23 12 8 19 51 31 191 11 120
23 161 35 113 11 -45 1 -416 -12 -429 -8 -8 -8 -19 2 -43 8 -19 15 -108 19
-234 4 -112 11 -213 16 -225 8 -22 8 -21 19 5 14 37 31 253 31 402 0 135 9
226 21 226 33 0 43 -271 20 -535 -15 -172 -22 -948 -8 -961 14 -14 19 6 28
115 10 125 22 188 39 205 10 9 11 -22 6 -141 -16 -371 -125 -1093 -183 -1207
-8 -16 -19 -56 -23 -90 -11 -74 -94 -366 -98 -343 -6 30 26 272 43 319 16 47
9 88 -15 88 -18 0 -130 -398 -130 -465 0 -17 -7 -55 -15 -85 -9 -30 -23 -81
-32 -112 -29 -108 -49 -58 -39 98 7 115 -6 141 -23 47 -31 -172 -71 -292 -100
-301 -11 -4 -12 2 -7 24 25 113 30 394 7 394 -11 0 -26 -57 -46 -165 -17 -90
-41 -165 -54 -165 -4 0 -12 13 -18 30 -6 17 -16 30 -21 30 -11 0 -22 -34 -22
-71 0 -44 -65 -84 -90 -54 -42 51 -60 470 -60 1411 0 1108 23 2216 51 2449 16
131 27 159 64 163 17 1 40 8 52 14 29 15 34 9 40 -47 3 -25 9 -48 14 -51 11
-7 36 86 44 166 14 130 32 97 45 -80z m209 -71 c1 -111 -2 -139 -14 -149 -9
-7 -18 -10 -21 -7 -3 3 -1 45 5 94 6 48 11 126 12 173 2 137 16 46 18 -111z
m-1812 -86 c-7 -167 -14 -216 -28 -207 -18 11 -3 323 16 354 16 25 18 -1 12
-147z m2147 -102 c-5 -14 -7 -13 -14 4 -5 11 -7 29 -5 40 2 11 8 43 12 70 l8
50 3 -74 c2 -41 0 -81 -4 -90z m-104 82 c0 -7 -4 -13 -9 -13 -10 0 -21 25 -21
48 1 15 3 14 15 -2 8 -11 15 -26 15 -33z m-4612 26 c-6 -17 -87 -74 -94 -66
-9 9 15 37 51 59 34 21 48 23 43 7z m2453 -180 c-7 -18 -10 -3 -10 67 -1 50 2
94 7 98 11 12 14 -137 3 -165z m2269 -119 c0 -43 -4 -81 -9 -84 -14 -9 -21 20
-21 84 0 64 7 93 21 84 5 -3 9 -41 9 -84z m-2279 -96 c-28 -256 -21 -1032 14
-1509 17 -233 18 -308 6 -301 -37 23 -91 1027 -77 1411 11 279 26 447 43 473
8 13 17 22 19 19 3 -2 0 -44 -5 -93z m106 -228 c-11 -509 17 -1248 63 -1670
30 -268 25 -304 -15 -111 -18 88 -40 192 -49 230 -39 182 -60 670 -53 1260 5
398 14 566 33 596 3 5 10 6 16 3 8 -5 9 -95 5 -308z m-246 -288 c-7 -26 -9 -7
-10 84 -1 64 2 125 7 135 11 27 14 -181 3 -219z m2526 115 c-2 -16 -4 -3 -4
27 0 30 2 43 4 28 2 -16 2 -40 0 -55z m-2513 -393 c9 -115 36 -651 41 -830 6
-179 -8 -151 -30 60 -44 426 -59 964 -25 875 4 -12 11 -59 14 -105z m3746
-947 c86 -111 198 -350 295 -633 48 -139 98 -330 90 -339 -3 -2 -15 5 -28 17
-29 27 -39 27 -55 1 -7 -11 -17 -19 -23 -17 -12 4 -172 375 -207 481 -23 71
-24 82 -13 127 15 60 2 143 -34 213 -14 27 -25 66 -25 87 0 23 -8 48 -21 64
-11 14 -16 26 -10 26 5 0 19 -12 31 -27z m-4303 -425 c1 -73 3 -196 5 -273 2
-114 -2 -160 -21 -250 -44 -210 -90 -320 -122 -288 -29 29 -38 206 -18 363 26
215 118 580 146 580 5 0 9 -60 10 -132z m3070 95 c-3 -10 -5 -4 -5 12 0 17 2
24 5 18 2 -7 2 -21 0 -30z m-17 -113 c0 -29 -4 -40 -15 -40 -8 0 -15 3 -15 7
0 9 23 73 27 73 2 0 3 -18 3 -40z m-2150 -80 c0 -10 -4 -22 -10 -25 -6 -4 -10
7 -10 25 0 18 4 29 10 25 6 -3 10 -15 10 -25z m2118 -106 c-12 -49 -24 -81
-26 -71 -7 32 32 177 44 165 3 -3 -5 -45 -18 -94z m-2131 -474 c-2 -21 -5 -19
-14 15 -6 22 -14 65 -17 95 l-5 55 19 -70 c11 -38 19 -81 17 -95z m227 45 c-7
-17 -8 -17 -20 0 -7 9 -10 24 -7 32 5 12 8 13 20 1 8 -9 11 -22 7 -33z m-89
-89 c10 -25 15 -50 12 -58 -5 -15 -46 68 -47 95 0 29 17 11 35 -37z m40 -154
c3 -20 8 -47 11 -59 2 -13 0 -23 -5 -23 -9 0 -31 76 -31 110 0 34 19 13 25
-28z m284 -143 c35 -44 41 -58 41 -100 0 -60 -16 -72 -25 -19 -4 22 -20 59
-36 82 -24 36 -39 88 -25 88 2 0 23 -23 45 -51z m-69 -211 c0 -10 -7 -18 -15
-18 -11 0 -15 11 -15 38 1 35 2 36 15 18 8 -11 15 -28 15 -38z m148 -15 c16
-41 62 -218 62 -238 0 -60 -80 111 -95 202 -10 63 13 88 33 36z m-80 -191 c2
-12 -1 -22 -7 -22 -6 0 -11 4 -11 9 0 5 -3 17 -7 27 -4 12 -2 15 8 12 8 -2 15
-14 17 -26z m-104 -51 c20 -39 57 -171 47 -171 -4 0 -18 34 -30 75 -13 41 -29
80 -37 86 -16 13 -19 39 -4 39 5 0 16 -13 24 -29z m170 -137 c3 -9 6 -23 6
-32 -1 -15 -3 -14 -15 2 -17 22 -20 46 -6 46 5 0 12 -7 15 -16z m390 -180 c3
-9 6 -23 6 -32 -1 -15 -3 -14 -15 2 -17 22 -20 46 -6 46 5 0 12 -7 15 -16z"/>
<path d="M5673 9864 c-16 -42 87 -94 146 -73 40 14 38 35 -8 66 -41 28 -128
33 -138 7z"/>
<path d="M5416 9819 c-48 -38 -30 -66 33 -49 52 14 76 37 60 56 -17 20 -62 17
-93 -7z"/>
<path d="M5511 9665 c-21 -19 -44 -35 -50 -35 -24 0 -9 -29 19 -35 45 -10 86
3 98 31 7 13 23 29 37 36 33 15 32 24 -6 32 -50 10 -57 8 -98 -29z"/>
<path d="M5893 9660 c-26 -11 -30 -28 -8 -36 17 -7 75 14 75 26 0 8 -25 21
-38 19 -4 0 -17 -4 -29 -9z"/>
<path d="M5585 9180 c-8 -13 20 -24 41 -16 20 8 9 26 -16 26 -10 0 -22 -5 -25
-10z"/>
<path d="M5525 9092 c-46 -8 -75 -25 -75 -44 0 -17 5 -20 28 -15 40 8 102 36
102 46 0 11 -29 18 -55 13z"/>
<path d="M5797 9034 c-11 -11 13 -44 31 -44 24 0 42 19 35 36 -5 14 -54 20
-66 8z"/>
<path d="M5179 8974 c-20 -24 1 -48 45 -52 42 -4 49 15 16 48 -24 24 -43 25
-61 4z"/>
<path d="M6280 8871 c0 -11 6 -21 13 -24 20 -7 37 4 37 24 0 14 -7 19 -25 19
-18 0 -25 -5 -25 -19z"/>
<path d="M5650 8871 c0 -18 48 -43 77 -39 l28 3 -30 16 c-44 24 -75 32 -75 20z"/>
<path d="M5946 8872 c-13 -21 6 -42 39 -42 35 0 54 15 38 31 -14 14 -70 22
-77 11z"/>
<path d="M4995 8784 c-51 -19 -64 -32 -45 -45 28 -18 140 19 140 47 0 18 -43
17 -95 -2z"/>
<path d="M5342 8744 c-41 -28 -23 -54 38 -54 34 0 54 22 45 50 -8 25 -50 27
-83 4z"/>
<path d="M5624 8669 c-16 -4 -41 -21 -55 -35 l-24 -27 38 6 c44 7 110 37 111
52 1 13 -32 16 -70 4z"/>
<path d="M6062 8628 c3 -8 27 -14 64 -16 54 -2 57 -1 40 13 -25 19 -110 21
-104 3z"/>
<path d="M5000 8610 c-13 -9 -11 -13 10 -30 48 -37 123 -15 89 26 -13 16 -77
18 -99 4z"/>
<path d="M5833 8514 c-10 -27 11 -49 52 -52 54 -5 67 13 32 44 -32 28 -75 32
-84 8z"/>
<path d="M6303 8463 c9 -2 23 -2 30 0 6 3 -1 5 -18 5 -16 0 -22 -2 -12 -5z"/>
<path d="M4875 8429 c-58 -51 -42 -78 23 -39 22 14 32 27 32 45 0 33 -12 32
-55 -6z"/>
<path d="M5241 8366 c-11 -13 -9 -17 13 -27 30 -14 80 2 74 24 -7 18 -72 21
-87 3z"/>
<path d="M5041 8337 c-29 -15 -37 -33 -18 -40 18 -7 79 23 85 41 5 16 -35 16
-67 -1z"/>
<path d="M5582 8304 c-31 -21 -29 -52 4 -60 35 -9 94 7 107 28 26 41 -62 67
-111 32z"/>
<path d="M5891 8291 c-24 -43 47 -71 73 -28 9 15 7 21 -8 33 -27 19 -53 18
-65 -5z"/>
<path d="M6200 8252 c-35 -36 -41 -59 -10 -42 23 13 55 58 47 67 -3 3 -20 -8
-37 -25z"/>
<path d="M4676 8234 c-15 -15 -16 -19 -3 -32 23 -22 69 -8 65 21 -4 28 -39 34
-62 11z"/>
<path d="M5300 8215 c-19 -22 3 -36 50 -33 27 2 35 7 35 23 0 27 -65 34 -85
10z"/>
<path d="M5065 8142 c-11 -2 -25 -8 -31 -13 -6 -5 -27 -12 -48 -16 -46 -10
-51 -27 -8 -31 28 -3 142 38 142 51 0 8 -34 13 -55 9z"/>
<path d="M5726 8121 c-13 -20 84 -66 120 -57 35 9 29 35 -11 52 -38 16 -101
19 -109 5z"/>
<path d="M6090 8054 c0 -10 7 -14 22 -12 32 5 35 28 4 28 -17 0 -26 -5 -26
-16z"/>
<path d="M5430 8010 c-13 -9 -13 -11 0 -20 27 -18 118 -43 134 -37 22 9 20 34
-4 47 -30 16 -113 23 -130 10z"/>
<path d="M6020 8010 c-12 -7 -11 -10 5 -17 24 -9 103 -9 112 1 22 21 -85 36
-117 16z"/>
<path d="M5161 7901 c-16 -11 -6 -17 41 -26 20 -4 44 -2 55 3 16 10 15 12 -10
21 -34 13 -67 14 -86 2z"/>
<path d="M6314 7901 c13 -20 66 -42 94 -39 l26 3 -28 18 c-34 22 -103 36 -92
18z"/>
<path d="M4816 7869 c-28 -22 -35 -49 -12 -49 20 0 77 50 70 61 -9 15 -29 10
-58 -12z"/>
<path d="M5617 7883 c-14 -13 -6 -24 15 -21 27 4 36 28 11 28 -11 0 -23 -3
-26 -7z"/>
<path d="M5810 7823 c-26 -34 -22 -47 20 -51 68 -7 101 18 80 59 -17 30 -73
26 -100 -8z"/>
<path d="M5440 7745 c-16 -20 -4 -35 28 -35 15 0 38 -7 50 -16 31 -21 77 -15
77 11 0 42 -126 75 -155 40z"/>
<path d="M6088 7698 c-49 -17 -32 -39 31 -40 54 -1 67 9 45 33 -19 21 -35 22
-76 7z"/>
<path d="M4698 7674 c-16 -8 -28 -21 -28 -29 0 -22 118 -21 126 0 16 40 -46
58 -98 29z"/>
<path d="M5050 7612 c0 -5 12 -14 26 -21 32 -14 54 -3 29 16 -21 14 -55 18
-55 5z"/>
<path d="M5688 7573 c-25 -6 -22 -20 7 -39 27 -18 55 -13 55 10 0 13 -31 39
-42 35 -2 -1 -11 -3 -20 -6z"/>
<path d="M4783 7533 c15 -2 37 -2 50 0 12 2 0 4 -28 4 -27 0 -38 -2 -22 -4z"/>
<path d="M5442 7527 c-10 -11 -9 -17 2 -26 21 -18 51 -9 51 14 0 24 -36 32
-53 12z"/>
<path d="M5650 7351 c0 -12 6 -21 16 -21 9 0 14 7 12 17 -5 25 -28 28 -28 4z"/>
<path d="M4809 6664 c-18 -22 6 -40 67 -49 75 -11 162 12 107 29 -19 5 -152
36 -157 36 -2 0 -10 -7 -17 -16z"/>
<path d="M5195 6665 c21 -17 80 -17 80 0 0 6 -22 11 -50 13 -47 2 -49 1 -30
-13z"/>
<path d="M4843 3974 c-8 -21 13 -42 28 -27 13 13 5 43 -11 43 -6 0 -13 -7 -17
-16z"/>
<path d="M4945 3650 c-3 -5 -15 -10 -26 -10 -28 0 -24 -35 6 -48 40 -18 45
-15 45 28 0 38 -12 52 -25 30z"/>
<path d="M6596 4740 c-3 -22 -8 -75 -11 -118 l-5 -77 20 55 c19 57 27 165 11
174 -5 3 -11 -12 -15 -34z"/>
<path d="M6534 4255 c-31 -55 -78 -239 -89 -340 -6 -64 6 -104 24 -76 25 38
87 363 79 413 -3 22 -4 22 -14 3z"/>
<path d="M6276 3794 c-3 -9 -6 -37 -6 -63 0 -26 -9 -82 -20 -124 -25 -94 -38
-203 -23 -194 22 14 73 257 73 350 0 46 -12 62 -24 31z"/>
<path d="M6706 10741 c-16 -25 37 -71 80 -71 10 0 37 -11 61 -26 45 -26 63
-25 63 5 0 22 -33 53 -87 80 -43 22 -107 28 -117 12z"/>
</g>
</svg>
