<?xml version="1.0" encoding="UTF-8" standalone="no"?>
<svg
   xmlns:dc="http://purl.org/dc/elements/1.1/"
   xmlns:cc="http://creativecommons.org/ns#"
   xmlns:rdf="http://www.w3.org/1999/02/22-rdf-syntax-ns#"
   xmlns:svg="http://www.w3.org/2000/svg"
   xmlns="http://www.w3.org/2000/svg"
   viewBox="0 0 313.94934 326.80133"
   height="326.80133"
   width="313.94934"
   xml:space="preserve"
   id="svg2"
   version="1.1"><metadata
     id="metadata8"><rdf:RDF><cc:Work
         rdf:about=""><dc:format>image/svg+xml</dc:format><dc:type
           rdf:resource="http://purl.org/dc/dcmitype/StillImage" /></cc:Work></rdf:RDF></metadata><defs
     id="defs6" /><g
     transform="matrix(1.3333333,0,0,-1.3333333,0,326.80133)"
     id="g10"><g
       transform="translate(121.677,68.954)"
       id="g12"><g
         id="g14"><g
           id="g16" /><g
           id="g18"><g
             id="g20"><g
               id="g22"><path
                 id="path24"
                 style="fill:#ccccff;fill-opacity:1;fill-rule:nonzero;stroke:#8080ff;stroke-width:0.79701;stroke-linecap:butt;stroke-linejoin:miter;stroke-miterlimit:10;stroke-dasharray:none;stroke-opacity:1"
                 d="m 28.3468,147.40332 c 0,15.6557 -12.6911,28.3468 -28.3468,28.3468 -15.6557,0 -28.3468,-12.6911 -28.3468,-28.3468 0,-15.65572 12.6911,-28.34682 28.3468,-28.34682 15.6557,0 28.3468,12.6911 28.3468,28.34682 z" /></g><g
               transform="translate(-23.623,144.085)"
               id="g26"><g
                 id="g28"><g
                   transform="translate(-98.054,-213.039)"
                   id="g30"><text
                     id="text34"
                     style="font-variant:normal;font-size:9.46450043px;font-family:'Nimbus Sans';-inkscape-font-specification:NimbusSanL-Regu;writing-mode:lr-tb;fill:#000000;fill-opacity:1;fill-rule:nonzero;stroke:none"
                     transform="matrix(1,0,0,-1,98.054,213.039)"><tspan
                       id="tspan32"
                       y="0"
                       x="0 6.3128214 11.575084 16.307333 18.938465 21.995499 27.257759 31.990009 34.62114 36.72226 41.984524">Abstraction</tspan></text>
<g
                     transform="translate(98.054,213.039)"
                     id="g36" /></g></g><g
                 transform="translate(23.623,-144.085)"
                 id="g38" /></g></g><g
             id="g40"><g
               id="g42"><path
                 id="path44"
                 style="fill:none;stroke:#000000;stroke-width:0.59776002;stroke-linecap:butt;stroke-linejoin:miter;stroke-miterlimit:10;stroke-dasharray:none;stroke-opacity:1"
                 d="M 28.42247,143.12108 C 76.50624,127.85307 103.14328,76.43057 88.54459,30.45471" /><g
                 transform="matrix(-0.30263,-0.95306,0.95306,-0.30263,88.5446,30.45471)"
                 id="g46"><g
                   id="g48"><path
                     id="path50"
                     style="fill:#000000;fill-opacity:1;fill-rule:nonzero;stroke:#000000;stroke-width:0.59776002;stroke-linecap:butt;stroke-linejoin:round;stroke-miterlimit:10;stroke-dasharray:none;stroke-opacity:1"
                     d="m 0.91655,0 c -1.14568,0.22913 -2.29138,0.68741 -3.66621,1.4894 1.37483,-1.03113 1.37483,-1.94767 0,-2.9788 1.37483,0.80199 2.52053,1.26027 3.66621,1.4894 z" /></g></g></g></g><g
             id="g52"><g
               id="g54"><path
                 id="path56"
                 style="fill:#ccccff;fill-opacity:1;fill-rule:nonzero;stroke:#8080ff;stroke-width:0.79701;stroke-linecap:butt;stroke-linejoin:miter;stroke-miterlimit:10;stroke-dasharray:none;stroke-opacity:1"
                 d="m 113.38724,0 c 0,15.6557 -12.6911,28.3468 -28.34682,28.3468 -15.65572,0 -28.3468,-12.6911 -28.3468,-28.3468 0,-15.6557 12.69108,-28.3468 28.3468,-28.3468 15.65572,0 28.34682,12.6911 28.34682,28.3468 z" /></g><g
               transform="translate(61.246,-3.317)"
               id="g58"><g
                 id="g60"><g
                   transform="translate(-182.923,-65.637)"
                   id="g62"><text
                     id="text66"
                     style="font-variant:normal;font-size:9.46450043px;font-family:'Nimbus Sans';-inkscape-font-specification:NimbusSanL-Regu;writing-mode:lr-tb;fill:#000000;fill-opacity:1;fill-rule:nonzero;stroke:none"
                     transform="matrix(1,0,0,-1,182.923,65.637)"><tspan
                       id="tspan64"
                       y="0"
                       x="0 6.0288863 11.291148 13.922279 19.184542 27.06847 32.33073 34.961864 37.062981 42.325245">Automation</tspan></text>
<g
                     transform="translate(182.923,65.637)"
                     id="g68" /></g></g><g
                 transform="translate(-61.246,3.317)"
                 id="g70" /></g></g><g
             id="g72"><g
               id="g74"><path
                 id="path76"
                 style="fill:none;stroke:#000000;stroke-width:0.59776002;stroke-linecap:butt;stroke-linejoin:miter;stroke-miterlimit:10;stroke-dasharray:none;stroke-opacity:1"
                 d="M 68.39792,-23.43538 C 28.08829,-66.46138 -39.17955,-68.65643 -80.59157,-29.85889" /><g
                 transform="matrix(-0.72975,0.68367,-0.68367,-0.72975,-80.59155,-29.85889)"
                 id="g78"><g
                   id="g80"><path
                     id="path82"
                     style="fill:#000000;fill-opacity:1;fill-rule:nonzero;stroke:#000000;stroke-width:0.59776002;stroke-linecap:butt;stroke-linejoin:round;stroke-miterlimit:10;stroke-dasharray:none;stroke-opacity:1"
                     d="m 0.91655,0 c -1.14568,0.22913 -2.29138,0.68741 -3.66621,1.4894 1.37483,-1.03113 1.37483,-1.94767 0,-2.9788 1.37483,0.80199 2.52053,1.26027 3.66621,1.4894 z" /></g></g></g></g><g
             id="g84"><g
               id="g86"><path
                 id="path88"
                 style="fill:#ccccff;fill-opacity:1;fill-rule:nonzero;stroke:#8080ff;stroke-width:0.79701;stroke-linecap:butt;stroke-linejoin:miter;stroke-miterlimit:10;stroke-dasharray:none;stroke-opacity:1"
                 d="m -56.69362,0 c 0,15.6557 -12.69108,28.3468 -28.3468,28.3468 -15.65572,0 -28.34682,-12.6911 -28.34682,-28.3468 0,-15.6557 12.6911,-28.3468 28.34682,-28.3468 15.65572,0 28.3468,12.6911 28.3468,28.3468 z" /></g><g
               transform="translate(-102.657,-2.375)"
               id="g90"><g
                 id="g92"><g
                   transform="translate(-19.02,-66.579)"
                   id="g94"><text
                     id="text98"
                     style="font-variant:normal;font-size:9.46450043px;font-family:'Nimbus Sans';-inkscape-font-specification:NimbusSanL-Regu;writing-mode:lr-tb;fill:#000000;fill-opacity:1;fill-rule:nonzero;stroke:none"
                     transform="matrix(1,0,0,-1,19.02,66.579)"><tspan
                       id="tspan96"
                       y="0"
                       x="0 6.3128214 11.575084 16.837345 18.938465 23.670715 28.402964 30.504084">Analysis</tspan></text>
<g
                     transform="translate(19.02,66.579)"
                     id="g100" /></g></g><g
                 transform="translate(102.657,2.375)"
                 id="g102" /></g></g><g
             id="g104"><g
               id="g106"><path
                 id="path108"
                 style="fill:none;stroke:#000000;stroke-width:0.59776002;stroke-linecap:butt;stroke-linejoin:miter;stroke-miterlimit:10;stroke-dasharray:none;stroke-opacity:1"
                 d="m -96.71469,26.2671 c -14.60297,52.4438 15.92409,106.53324 66.23738,120.54303" /><g
                 transform="matrix(0.96329,0.2682,-0.2682,0.96329,-30.47733,146.81012)"
                 id="g110"><g
                   id="g112"><path
                     id="path114"
                     style="fill:#000000;fill-opacity:1;fill-rule:nonzero;stroke:#000000;stroke-width:0.59776002;stroke-linecap:butt;stroke-linejoin:round;stroke-miterlimit:10;stroke-dasharray:none;stroke-opacity:1"
                     d="m 0.91655,0 c -1.14568,0.22913 -2.29138,0.68741 -3.66621,1.4894 1.37483,-1.03113 1.37483,-1.94767 0,-2.9788 1.37483,0.80199 2.52053,1.26027 3.66621,1.4894 z" /></g></g></g></g></g></g></g></g></svg>