<?xml version="1.0" encoding="UTF-8" standalone="no"?>
<!DOCTYPE svg PUBLIC "-//W3C//DTD SVG 1.1//EN" "http://www.w3.org/Graphics/SVG/1.1/DTD/svg11.dtd">
<svg xmlns="http://www.w3.org/2000/svg" xmlns:xlink="http://www.w3.org/1999/xlink" version="1.1" width="212.797pt" height="146.582pt" viewBox="0 0 212.797 146.582">
<g enable-background="new">
<path transform="matrix(1,0,0,-1,123.368,13.067993)" d="M 12.86858 0 C 12.86858 7.1072 7.1072 12.86858 0 12.86858 C -7.1072 12.86858 -12.86858 7.1072 -12.86858 0 C -12.86858 -7.1072 -7.1072 -12.86858 0 -12.86858 C 7.1072 -12.86858 12.86858 -7.1072 12.86858 0 Z M 0 0 "/>
<path transform="matrix(1,0,0,-1,123.368,13.067993)" stroke-width=".3985" stroke-linecap="butt" stroke-miterlimit="10" stroke-linejoin="miter" fill="none" stroke="#000000" d="M 12.86858 0 C 12.86858 7.1072 7.1072 12.86858 0 12.86858 C -7.1072 12.86858 -12.86858 7.1072 -12.86858 0 C -12.86858 -7.1072 -7.1072 -12.86858 0 -12.86858 C 7.1072 -12.86858 12.86858 -7.1072 12.86858 0 Z M 0 0 "/>
<path transform="matrix(1,0,0,-1,63.974996,53.215993)" d="M 12.86858 0 C 12.86858 7.1072 7.1072 12.86858 0 12.86858 C -7.1072 12.86858 -12.86858 7.1072 -12.86858 0 C -12.86858 -7.1072 -7.1072 -12.86858 0 -12.86858 C 7.1072 -12.86858 12.86858 -7.1072 12.86858 0 Z M 0 0 "/>
<path transform="matrix(1,0,0,-1,63.974996,53.215993)" stroke-width=".3985" stroke-linecap="butt" stroke-miterlimit="10" stroke-linejoin="miter" fill="none" stroke="#000000" d="M 12.86858 0 C 12.86858 7.1072 7.1072 12.86858 0 12.86858 C -7.1072 12.86858 -12.86858 7.1072 -12.86858 0 C -12.86858 -7.1072 -7.1072 -12.86858 0 -12.86858 C 7.1072 -12.86858 12.86858 -7.1072 12.86858 0 Z M 0 0 "/>
<path transform="matrix(1,0,0,-1,30.036995,93.36499)" d="M 12.86858 0 C 12.86858 7.1072 7.1072 12.86858 0 12.86858 C -7.1072 12.86858 -12.86858 7.1072 -12.86858 0 C -12.86858 -7.1072 -7.1072 -12.86858 0 -12.86858 C 7.1072 -12.86858 12.86858 -7.1072 12.86858 0 Z M 0 0 " fill="#ff0000"/>
<path transform="matrix(1,0,0,-1,30.036995,93.36499)" stroke-width=".3985" stroke-linecap="butt" stroke-miterlimit="10" stroke-linejoin="miter" fill="none" stroke="#000000" d="M 12.86858 0 C 12.86858 7.1072 7.1072 12.86858 0 12.86858 C -7.1072 12.86858 -12.86858 7.1072 -12.86858 0 C -12.86858 -7.1072 -7.1072 -12.86858 0 -12.86858 C 7.1072 -12.86858 12.86858 -7.1072 12.86858 0 Z M 0 0 "/>
<path transform="matrix(1,0,0,-1,13.067993,133.51399)" d="M 12.86858 0 C 12.86858 7.1072 7.1072 12.86858 0 12.86858 C -7.1072 12.86858 -12.86858 7.1072 -12.86858 0 C -12.86858 -7.1072 -7.1072 -12.86858 0 -12.86858 C 7.1072 -12.86858 12.86858 -7.1072 12.86858 0 Z M 0 0 "/>
<path transform="matrix(1,0,0,-1,13.067993,133.51399)" stroke-width=".3985" stroke-linecap="butt" stroke-miterlimit="10" stroke-linejoin="miter" fill="none" stroke="#000000" d="M 12.86858 0 C 12.86858 7.1072 7.1072 12.86858 0 12.86858 C -7.1072 12.86858 -12.86858 7.1072 -12.86858 0 C -12.86858 -7.1072 -7.1072 -12.86858 0 -12.86858 C 7.1072 -12.86858 12.86858 -7.1072 12.86858 0 Z M 0 0 "/>
<path transform="matrix(1,0,0,-1,47.005998,133.51399)" d="M 12.86858 0 C 12.86858 7.1072 7.1072 12.86858 0 12.86858 C -7.1072 12.86858 -12.86858 7.1072 -12.86858 0 C -12.86858 -7.1072 -7.1072 -12.86858 0 -12.86858 C 7.1072 -12.86858 12.86858 -7.1072 12.86858 0 Z M 0 0 "/>
<path transform="matrix(1,0,0,-1,47.005998,133.51399)" stroke-width=".3985" stroke-linecap="butt" stroke-miterlimit="10" stroke-linejoin="miter" fill="none" stroke="#000000" d="M 12.86858 0 C 12.86858 7.1072 7.1072 12.86858 0 12.86858 C -7.1072 12.86858 -12.86858 7.1072 -12.86858 0 C -12.86858 -7.1072 -7.1072 -12.86858 0 -12.86858 C 7.1072 -12.86858 12.86858 -7.1072 12.86858 0 Z M 0 0 "/>
<path transform="matrix(1,0,0,-1,97.913997,93.36499)" d="M 12.86858 0 C 12.86858 7.1072 7.1072 12.86858 0 12.86858 C -7.1072 12.86858 -12.86858 7.1072 -12.86858 0 C -12.86858 -7.1072 -7.1072 -12.86858 0 -12.86858 C 7.1072 -12.86858 12.86858 -7.1072 12.86858 0 Z M 0 0 " fill="#ff0000"/>
<path transform="matrix(1,0,0,-1,97.913997,93.36499)" stroke-width=".3985" stroke-linecap="butt" stroke-miterlimit="10" stroke-linejoin="miter" fill="none" stroke="#000000" d="M 12.86858 0 C 12.86858 7.1072 7.1072 12.86858 0 12.86858 C -7.1072 12.86858 -12.86858 7.1072 -12.86858 0 C -12.86858 -7.1072 -7.1072 -12.86858 0 -12.86858 C 7.1072 -12.86858 12.86858 -7.1072 12.86858 0 Z M 0 0 "/>
<path transform="matrix(1,0,0,-1,80.94499,133.51399)" d="M 12.86858 0 C 12.86858 7.1072 7.1072 12.86858 0 12.86858 C -7.1072 12.86858 -12.86858 7.1072 -12.86858 0 C -12.86858 -7.1072 -7.1072 -12.86858 0 -12.86858 C 7.1072 -12.86858 12.86858 -7.1072 12.86858 0 Z M 0 0 "/>
<path transform="matrix(1,0,0,-1,80.94499,133.51399)" stroke-width=".3985" stroke-linecap="butt" stroke-miterlimit="10" stroke-linejoin="miter" fill="none" stroke="#000000" d="M 12.86858 0 C 12.86858 7.1072 7.1072 12.86858 0 12.86858 C -7.1072 12.86858 -12.86858 7.1072 -12.86858 0 C -12.86858 -7.1072 -7.1072 -12.86858 0 -12.86858 C 7.1072 -12.86858 12.86858 -7.1072 12.86858 0 Z M 0 0 "/>
<path transform="matrix(1,0,0,-1,114.882999,133.51399)" d="M 12.86858 0 C 12.86858 7.1072 7.1072 12.86858 0 12.86858 C -7.1072 12.86858 -12.86858 7.1072 -12.86858 0 C -12.86858 -7.1072 -7.1072 -12.86858 0 -12.86858 C 7.1072 -12.86858 12.86858 -7.1072 12.86858 0 Z M 0 0 "/>
<path transform="matrix(1,0,0,-1,114.882999,133.51399)" stroke-width=".3985" stroke-linecap="butt" stroke-miterlimit="10" stroke-linejoin="miter" fill="none" stroke="#000000" d="M 12.86858 0 C 12.86858 7.1072 7.1072 12.86858 0 12.86858 C -7.1072 12.86858 -12.86858 7.1072 -12.86858 0 C -12.86858 -7.1072 -7.1072 -12.86858 0 -12.86858 C 7.1072 -12.86858 12.86858 -7.1072 12.86858 0 Z M 0 0 "/>
<path transform="matrix(1,0,0,-1,182.76,53.215993)" d="M 12.86858 0 C 12.86858 7.1072 7.1072 12.86858 0 12.86858 C -7.1072 12.86858 -12.86858 7.1072 -12.86858 0 C -12.86858 -7.1072 -7.1072 -12.86858 0 -12.86858 C 7.1072 -12.86858 12.86858 -7.1072 12.86858 0 Z M 0 0 "/>
<path transform="matrix(1,0,0,-1,182.76,53.215993)" stroke-width=".3985" stroke-linecap="butt" stroke-miterlimit="10" stroke-linejoin="miter" fill="none" stroke="#000000" d="M 12.86858 0 C 12.86858 7.1072 7.1072 12.86858 0 12.86858 C -7.1072 12.86858 -12.86858 7.1072 -12.86858 0 C -12.86858 -7.1072 -7.1072 -12.86858 0 -12.86858 C 7.1072 -12.86858 12.86858 -7.1072 12.86858 0 Z M 0 0 "/>
<path transform="matrix(1,0,0,-1,165.791,93.36499)" d="M 12.86858 0 C 12.86858 7.1072 7.1072 12.86858 0 12.86858 C -7.1072 12.86858 -12.86858 7.1072 -12.86858 0 C -12.86858 -7.1072 -7.1072 -12.86858 0 -12.86858 C 7.1072 -12.86858 12.86858 -7.1072 12.86858 0 Z M 0 0 " fill="#ff0000"/>
<path transform="matrix(1,0,0,-1,165.791,93.36499)" stroke-width=".3985" stroke-linecap="butt" stroke-miterlimit="10" stroke-linejoin="miter" fill="none" stroke="#000000" d="M 12.86858 0 C 12.86858 7.1072 7.1072 12.86858 0 12.86858 C -7.1072 12.86858 -12.86858 7.1072 -12.86858 0 C -12.86858 -7.1072 -7.1072 -12.86858 0 -12.86858 C 7.1072 -12.86858 12.86858 -7.1072 12.86858 0 Z M 0 0 "/>
<path transform="matrix(1,0,0,-1,148.82199,133.51399)" d="M 12.86858 0 C 12.86858 7.1072 7.1072 12.86858 0 12.86858 C -7.1072 12.86858 -12.86858 7.1072 -12.86858 0 C -12.86858 -7.1072 -7.1072 -12.86858 0 -12.86858 C 7.1072 -12.86858 12.86858 -7.1072 12.86858 0 Z M 0 0 "/>
<path transform="matrix(1,0,0,-1,148.82199,133.51399)" stroke-width=".3985" stroke-linecap="butt" stroke-miterlimit="10" stroke-linejoin="miter" fill="none" stroke="#000000" d="M 12.86858 0 C 12.86858 7.1072 7.1072 12.86858 0 12.86858 C -7.1072 12.86858 -12.86858 7.1072 -12.86858 0 C -12.86858 -7.1072 -7.1072 -12.86858 0 -12.86858 C 7.1072 -12.86858 12.86858 -7.1072 12.86858 0 Z M 0 0 "/>
<path transform="matrix(1,0,0,-1,182.76,133.51399)" d="M 12.86858 0 C 12.86858 7.1072 7.1072 12.86858 0 12.86858 C -7.1072 12.86858 -12.86858 7.1072 -12.86858 0 C -12.86858 -7.1072 -7.1072 -12.86858 0 -12.86858 C 7.1072 -12.86858 12.86858 -7.1072 12.86858 0 Z M 0 0 "/>
<path transform="matrix(1,0,0,-1,182.76,133.51399)" stroke-width=".3985" stroke-linecap="butt" stroke-miterlimit="10" stroke-linejoin="miter" fill="none" stroke="#000000" d="M 12.86858 0 C 12.86858 7.1072 7.1072 12.86858 0 12.86858 C -7.1072 12.86858 -12.86858 7.1072 -12.86858 0 C -12.86858 -7.1072 -7.1072 -12.86858 0 -12.86858 C 7.1072 -12.86858 12.86858 -7.1072 12.86858 0 Z M 0 0 "/>
<path transform="matrix(1,0,0,-1,199.729,93.36499)" d="M 12.86858 0 C 12.86858 7.1072 7.1072 12.86858 0 12.86858 C -7.1072 12.86858 -12.86858 7.1072 -12.86858 0 C -12.86858 -7.1072 -7.1072 -12.86858 0 -12.86858 C 7.1072 -12.86858 12.86858 -7.1072 12.86858 0 Z M 0 0 "/>
<path transform="matrix(1,0,0,-1,199.729,93.36499)" stroke-width=".3985" stroke-linecap="butt" stroke-miterlimit="10" stroke-linejoin="miter" fill="none" stroke="#000000" d="M 12.86858 0 C 12.86858 7.1072 7.1072 12.86858 0 12.86858 C -7.1072 12.86858 -12.86858 7.1072 -12.86858 0 C -12.86858 -7.1072 -7.1072 -12.86858 0 -12.86858 C 7.1072 -12.86858 12.86858 -7.1072 12.86858 0 Z M 0 0 "/>
<path transform="matrix(1,0,0,-1,123.368,13.067993)" stroke-width=".3985" stroke-linecap="butt" stroke-miterlimit="10" stroke-linejoin="miter" fill="none" stroke="#000000" d="M -10.82597 -7.31813 L -48.5671 -32.8313 "/>
<path transform="matrix(1,0,0,-1,123.368,13.067993)" stroke-width=".3985" stroke-linecap="butt" stroke-miterlimit="10" stroke-linejoin="miter" fill="none" stroke="#000000" d="M -67.82884 -50.12875 L -84.8962 -70.31934 "/>
<path transform="matrix(1,0,0,-1,123.368,13.067993)" stroke-width=".3985" stroke-linecap="butt" stroke-miterlimit="10" stroke-linejoin="miter" fill="none" stroke="#000000" d="M -98.41924 -92.33522 L -105.21436 -108.41199 "/>
<path transform="matrix(1,0,0,-1,123.368,13.067993)" stroke-width=".3985" stroke-linecap="butt" stroke-miterlimit="10" stroke-linejoin="miter" fill="none" stroke="#000000" d="M -88.2447 -92.33522 L -81.4496 -108.41199 "/>
<path transform="matrix(1,0,0,-1,123.368,13.067993)" stroke-width=".3985" stroke-linecap="butt" stroke-miterlimit="10" stroke-linejoin="miter" fill="none" stroke="#000000" d="M -50.95729 -50.12875 L -33.88994 -70.31934 "/>
<path transform="matrix(1,0,0,-1,123.368,13.067993)" stroke-width=".3985" stroke-linecap="butt" stroke-miterlimit="10" stroke-linejoin="miter" fill="none" stroke="#000000" d="M -30.54144 -92.33522 L -37.33655 -108.41199 "/>
<path transform="matrix(1,0,0,-1,123.368,13.067993)" stroke-width=".3985" stroke-linecap="butt" stroke-miterlimit="10" stroke-linejoin="miter" fill="none" stroke="#000000" d="M -20.3669 -92.33522 L -13.5718 -108.41199 "/>
<path transform="matrix(1,0,0,-1,123.368,13.067993)" stroke-width=".3985" stroke-linecap="butt" stroke-miterlimit="10" stroke-linejoin="miter" fill="none" stroke="#000000" d="M 10.82597 -7.31813 L 48.5671 -32.8313 "/>
<path transform="matrix(1,0,0,-1,123.368,13.067993)" stroke-width=".3985" stroke-linecap="butt" stroke-miterlimit="10" stroke-linejoin="miter" fill="none" stroke="#000000" d="M 54.3058 -52.18578 L 47.5107 -68.26254 "/>
<path transform="matrix(1,0,0,-1,123.368,13.067993)" stroke-width=".3985" stroke-linecap="butt" stroke-miterlimit="10" stroke-linejoin="miter" fill="none" stroke="#000000" d="M 37.33635 -92.33522 L 30.54124 -108.41199 "/>
<path transform="matrix(1,0,0,-1,123.368,13.067993)" stroke-width=".3985" stroke-linecap="butt" stroke-miterlimit="10" stroke-linejoin="miter" fill="none" stroke="#000000" d="M 47.5109 -92.33522 L 54.306 -108.41199 "/>
<path transform="matrix(1,0,0,-1,123.368,13.067993)" stroke-width=".3985" stroke-linecap="butt" stroke-miterlimit="10" stroke-linejoin="miter" fill="none" stroke="#000000" d="M 64.48033 -52.18578 L 71.27545 -68.26254 "/>
</g>
</svg>
