<?xml version="1.0" encoding="UTF-8" standalone="no"?>
<svg
   xmlns:dc="http://purl.org/dc/elements/1.1/"
   xmlns:cc="http://creativecommons.org/ns#"
   xmlns:rdf="http://www.w3.org/1999/02/22-rdf-syntax-ns#"
   xmlns:svg="http://www.w3.org/2000/svg"
   xmlns="http://www.w3.org/2000/svg"
   viewBox="0 0 393.87866 378.21866"
   height="378.21866"
   width="393.87866"
   xml:space="preserve"
   id="svg2"
   version="1.1"><metadata
     id="metadata8"><rdf:RDF><cc:Work
         rdf:about=""><dc:format>image/svg+xml</dc:format><dc:type
           rdf:resource="http://purl.org/dc/dcmitype/StillImage" /></cc:Work></rdf:RDF></metadata><defs
     id="defs6" /><g
     transform="matrix(1.3333333,0,0,-1.3333333,0,378.21867)"
     id="g10"><g
       transform="translate(141.832,141.832)"
       id="g12"><g
         id="g14"><g
           id="g16"><g
             id="g18"><path
               id="path20"
               style="fill:#808080;fill-opacity:1;fill-rule:nonzero;stroke:#808080;stroke-width:0.3985;stroke-linecap:butt;stroke-linejoin:miter;stroke-miterlimit:10;stroke-dasharray:none;stroke-opacity:1"
               d="M 1.99255,0 C 1.99255,1.10046 1.10046,1.99255 0,1.99255 -1.10046,1.99255 -1.99255,1.10046 -1.99255,0 c 0,-1.10046 0.89209,-1.99255 1.99255,-1.99255 1.10046,0 1.99255,0.89209 1.99255,1.99255 z" /></g><g
             id="g22"><path
               id="path24"
               style="fill:none;stroke:#808080;stroke-width:0.19925;stroke-linecap:butt;stroke-linejoin:miter;stroke-miterlimit:10;stroke-dasharray:none;stroke-opacity:1"
               d="m -141.73404,-141.73404 h 283.46808 m -283.46808,28.3468 h 283.46808 m -283.46808,28.34682 h 283.46808 m -283.46808,28.3468 H 141.73404 M -141.73404,-28.3468 H 141.73404 M -141.73404,0 h 283.46808 m -283.46808,28.3468 h 283.46808 m -283.46808,28.34682 h 283.46808 m -283.46808,28.3468 h 283.46808 m -283.46808,28.34682 h 283.46808 m -283.46808,28.33685 h 283.46808 m -283.46808,-283.45813 v 283.46808 m 28.3468,-283.46808 v 283.46808 m 28.34682,-283.46808 v 283.46808 m 28.3468,-283.46808 V 141.73404 M -28.3468,-141.73404 V 141.73404 M 0,-141.73404 v 283.46808 m 28.3468,-283.46808 v 283.46808 m 28.34682,-283.46808 v 283.46808 m 28.3468,-283.46808 v 283.46808 m 28.34682,-283.46808 v 283.46808 m 28.33685,-283.46808 v 283.46808" /></g><g
             id="g26"><g
               id="g28"><g
                 id="g30" /></g></g><g
             id="g32"><g
               transform="translate(-28.366,-14.512)"
               id="g34"><g
                 id="g36"><g
                   transform="translate(-113.466,-127.32)"
                   id="g38"><text
                     id="text42"
                     style="font-variant:normal;font-weight:normal;font-size:9.96259975px;font-family:CMR10;-inkscape-font-specification:CMR10;writing-mode:lr-tb;fill:#000000;fill-opacity:1;fill-rule:nonzero;stroke:none"
                     transform="matrix(1,0,0,-1,113.466,127.32)"><tspan
                       id="tspan40"
                       y="0"
                       x="0 5.5352206 10.795473 16.330694 24.075619 29.056919 36.24892 40.123375 45.104675 47.872284 52.853584">nodeat(0,0)</tspan></text>
<g
                     transform="translate(113.466,127.32)"
                     id="g44" /></g></g><g
                 transform="translate(28.366,14.512)"
                 id="g46" /></g></g><path
             id="path48"
             style="fill:none;stroke:#000000;stroke-width:0.3985;stroke-linecap:butt;stroke-linejoin:miter;stroke-miterlimit:10;stroke-dasharray:none;stroke-opacity:1"
             d="M 0,0 V 56.23534" /><g
             transform="rotate(90,-28.11767,28.11767)"
             id="g50"><g
               id="g52"><path
                 id="path54"
                 style="fill:none;stroke:#000000;stroke-width:0.31878999;stroke-linecap:round;stroke-linejoin:round;stroke-miterlimit:10;stroke-dasharray:none;stroke-opacity:1"
                 d="M -1.19551,1.59401 C -1.09587,0.99626 0,0.09961 0.29886,0 0,-0.09961 -1.09587,-0.99626 -1.19551,-1.59401" /></g></g><g
             id="g56"><g
               transform="translate(14.173,28.346)"
               id="g58"><g
                 id="g60" /><g
                 transform="translate(-14.173,-28.346)"
                 id="g62" /></g></g><g
             id="g64"><g
               transform="translate(21.213,25.856)"
               id="g66"><g
                 id="g68"><g
                   transform="translate(-163.045,-167.688)"
                   id="g70"><text
                     id="text74"
                     style="font-variant:normal;font-weight:normal;font-size:9.96259975px;font-family:CMR10;-inkscape-font-specification:CMR10;writing-mode:lr-tb;fill:#000000;fill-opacity:1;fill-rule:nonzero;stroke:none"
                     transform="matrix(1,0,0,-1,163.045,167.688)"><tspan
                       id="tspan72"
                       y="0"
                       x="0 4.9812999 9.408679 21.028059 26.009359 29.911711 33.81406 38.526371 49.038906 52.083477 55.985828 60.967129 72.58651 76.46096 81.442261 84.209869 89.19117 96.393135 100.26759 108.56644 112.4409 117.4222 120.1898 125.1711">2cmarrowfrom(0,0)to(0,2)</tspan></text>
<g
                     transform="translate(163.045,167.688)"
                     id="g76" /></g></g><g
                 transform="translate(-21.213,-25.856)"
                 id="g78" /></g></g></g></g></g></g></svg>