<?xml version="1.0" encoding="UTF-8" standalone="no"?>
<!DOCTYPE svg PUBLIC "-//W3C//DTD SVG 1.1//EN" "http://www.w3.org/Graphics/SVG/1.1/DTD/svg11.dtd">
<svg xmlns="http://www.w3.org/2000/svg" xmlns:xlink="http://www.w3.org/1999/xlink" version="1.1" width="615.55pt" height="422.104pt" viewBox="0 0 615.55 422.104">
<g enable-background="new">
<path transform="matrix(1,0,0,-1,-65.424,336.865)" d="M 135.66515 24.85568 L 91.10931 24.85568 C 83.28146 24.85568 76.93591 18.51013 76.93591 10.68228 L 76.93591 -10.68228 C 76.93591 -18.51013 83.28146 -24.85568 91.10931 -24.85568 L 135.66515 -24.85568 C 143.493 -24.85568 149.83855 -18.51013 149.83855 -10.68228 L 149.83855 10.68228 C 149.83855 18.51013 143.493 24.85568 135.66515 24.85568 Z M 76.93591 -24.85568 " fill="#ccffcc"/>
<path transform="matrix(1,0,0,-1,-65.424,336.865)" stroke-width=".3985" stroke-linecap="butt" stroke-miterlimit="10" stroke-linejoin="miter" fill="none" stroke="#00ff00" d="M 135.66515 24.85568 L 91.10931 24.85568 C 83.28146 24.85568 76.93591 18.51013 76.93591 10.68228 L 76.93591 -10.68228 C 76.93591 -18.51013 83.28146 -24.85568 91.10931 -24.85568 L 135.66515 -24.85568 C 143.493 -24.85568 149.83855 -18.51013 149.83855 -10.68228 L 149.83855 10.68228 C 149.83855 18.51013 143.493 24.85568 135.66515 24.85568 Z M 76.93591 -24.85568 "/>
<text xml:space="preserve" transform="matrix(1 0 -0 1 -.0000019073487 422.10398)" font-size="9.9626" font-family="CMR10"><tspan y="-89.002" x="30.167 37.778429 42.20182 46.625215 51.885469 57.424676 61.84807">Decoder</tspan><tspan y="-77.047" x="25.684 29.559453 35.09866 40.358915 45.89812 50.87942 59.17827 61.947874 66.37127">(dynamic)</tspan></text>
<path transform="matrix(1,0,0,-1,-65.424,336.865)" d="M 107.9219 -62.15894 L 118.85252 -62.15894 L 118.85252 -51.22831 L 107.9219 -51.22831 Z " fill="#ccccff"/>
<path transform="matrix(1,0,0,-1,-65.424,336.865)" stroke-width=".3985" stroke-linecap="butt" stroke-miterlimit="10" stroke-linejoin="miter" fill="none" stroke="#0000ff" d="M 107.9219 -62.15894 L 118.85252 -62.15894 L 118.85252 -51.22831 L 107.9219 -51.22831 Z "/>
<text xml:space="preserve" transform="matrix(1 0 -0 1 -.0000038146974 422.10398)" font-size="9.9626" font-family="CMMI10" font-style="italic"><tspan y="-25.788" x="28.075">t</tspan></text>
<text xml:space="preserve" transform="matrix(1 0 -0 1 -.0000038146974 422.10398)" font-size="6.9738" font-family="CMR7"><tspan y="-29.403" x="31.672">1</tspan></text>
<text xml:space="preserve" transform="matrix(1 0 -0 1 -.0000038146974 422.10398)" font-size="6.9738" font-family="CMMI7" font-style="italic"><tspan y="-23.194" x="31.672">i</tspan></text>
<path transform="matrix(1,0,0,-1,-65.424,336.865)" stroke-width=".3985" stroke-linecap="butt" stroke-miterlimit="10" stroke-linejoin="miter" fill="none" stroke="#000000" d="M 113.38724 -48.39362 L 113.38724 -28.14864 "/>
<path transform="matrix(0,-1,-1,-0,47.963235,365.01365)" stroke-width=".31879" stroke-linecap="round" stroke-linejoin="round" fill="none" stroke="#000000" d="M -1.19551 1.59401 C -1.09587 .99626 0 .09961 .29886 0 C 0 -.09961 -1.09587 -.99626 -1.19551 -1.59401 "/>
<path transform="matrix(1,0,0,-1,-65.424,336.865)" d="M 85.2636 51.22829 L 141.51085 51.22829 L 141.51085 62.15892 L 85.2636 62.15892 Z M 96.39351 62.15894 L 96.39351 51.22829 M 107.72266 62.15894 L 107.72266 51.22829 M 119.0518 62.15894 L 119.0518 51.22829 M 130.38097 62.15894 L 130.38097 51.22829 " fill="#ffe6cc"/>
<path transform="matrix(1,0,0,-1,-65.424,336.865)" stroke-width=".3985" stroke-linecap="butt" stroke-miterlimit="10" stroke-linejoin="miter" fill="none" stroke="#ff8000" d="M 85.2636 51.22829 L 141.51085 51.22829 L 141.51085 62.15892 L 85.2636 62.15892 Z M 96.39351 62.15894 L 96.39351 51.22829 M 107.72266 62.15894 L 107.72266 51.22829 M 119.0518 62.15894 L 119.0518 51.22829 M 130.38097 62.15894 L 130.38097 51.22829 "/>
<text xml:space="preserve" transform="matrix(1 0 -0 1 -.0000009536743 422.104)" font-size="9.9626" font-family="CMR10"><tspan y="-139.173" x="3.954">&#x02dc;</tspan></text>
<text xml:space="preserve" transform="matrix(1 0 -0 1 -.0000009536743 422.104)" font-size="9.9626" font-family="CMMI10" font-style="italic"><tspan y="-139.173" x="3.321">x</tspan></text>
<text xml:space="preserve" transform="matrix(1 0 -0 1 -.0000009536743 422.104)" font-size="6.9738" font-family="CMR7"><tspan y="-142.789" x="9.014999">1</tspan></text>
<text xml:space="preserve" transform="matrix(1 0 -0 1 -.0000009536743 422.104)" font-size="6.9738" font-family="CMMI7" font-style="italic"><tspan y="-136.58" x="9.014999">i</tspan></text>
<path transform="matrix(1,0,0,-1,-65.424,336.865)" stroke-width=".3985" stroke-linecap="butt" stroke-miterlimit="10" stroke-linejoin="miter" fill="none" stroke="#000000" d="M 113.38724 27.69035 L 113.38724 47.93535 "/>
<path transform="matrix(0,-1,-1,-0,47.963235,288.92964)" stroke-width=".31879" stroke-linecap="round" stroke-linejoin="round" fill="none" stroke="#000000" d="M -1.19551 1.59401 C -1.09587 .99626 0 .09961 .29886 0 C 0 -.09961 -1.09587 -.99626 -1.19551 -1.59401 "/>
<path transform="matrix(1,0,0,-1,-65.424,336.865)" d="M 85.2636 65.40169 L 141.51085 65.40169 L 141.51085 76.33232 L 85.2636 76.33232 Z M 96.39351 76.33234 L 96.39351 65.40169 M 107.72266 76.33234 L 107.72266 65.40169 M 119.0518 76.33234 L 119.0518 65.40169 M 130.38097 76.33234 L 130.38097 65.40169 " fill="#ccccff"/>
<path transform="matrix(1,0,0,-1,-65.424,336.865)" stroke-width=".3985" stroke-linecap="butt" stroke-miterlimit="10" stroke-linejoin="miter" fill="none" stroke="#0000ff" d="M 85.2636 65.40169 L 141.51085 65.40169 L 141.51085 76.33232 L 85.2636 76.33232 Z M 96.39351 76.33234 L 96.39351 65.40169 M 107.72266 76.33234 L 107.72266 65.40169 M 119.0518 76.33234 L 119.0518 65.40169 M 130.38097 76.33234 L 130.38097 65.40169 "/>
<text xml:space="preserve" transform="matrix(1 0 -0 1 -.0000009536743 422.104)" font-size="9.9626" font-family="CMR10"><tspan y="-153.347" x="3.954">&#x02c6;</tspan></text>
<text xml:space="preserve" transform="matrix(1 0 -0 1 -.0000009536743 422.104)" font-size="9.9626" font-family="CMMI10" font-style="italic"><tspan y="-153.347" x="3.321">x</tspan></text>
<text xml:space="preserve" transform="matrix(1 0 -0 1 -.0000009536743 422.104)" font-size="6.9738" font-family="CMR7"><tspan y="-156.962" x="9.014999">1</tspan></text>
<text xml:space="preserve" transform="matrix(1 0 -0 1 -.0000009536743 422.104)" font-size="6.9738" font-family="CMMI7" font-style="italic"><tspan y="-150.753" x="9.014999">i</tspan></text>
<path transform="matrix(1,0,0,-1,-65.424,336.865)" d="M 135.66515 152.41632 L 91.10931 152.41632 C 83.28146 152.41632 76.93591 146.07077 76.93591 138.24292 L 76.93591 116.87834 C 76.93591 109.05049 83.28146 102.70494 91.10931 102.70494 L 135.66515 102.70494 C 143.493 102.70494 149.83855 109.05049 149.83855 116.87834 L 149.83855 138.24292 C 149.83855 146.07077 143.493 152.41632 135.66515 152.41632 Z M 76.93591 102.70494 " fill="#ccffcc"/>
<path transform="matrix(1,0,0,-1,-65.424,336.865)" stroke-width=".3985" stroke-linecap="butt" stroke-miterlimit="10" stroke-linejoin="miter" fill="none" stroke="#00ff00" d="M 135.66515 152.41632 L 91.10931 152.41632 C 83.28146 152.41632 76.93591 146.07077 76.93591 138.24292 L 76.93591 116.87834 C 76.93591 109.05049 83.28146 102.70494 91.10931 102.70494 L 135.66515 102.70494 C 143.493 102.70494 149.83855 109.05049 149.83855 116.87834 L 149.83855 138.24292 C 149.83855 146.07077 143.493 152.41632 135.66515 152.41632 Z M 76.93591 102.70494 "/>
<text xml:space="preserve" transform="matrix(1 0 -0 1 -.0000019073487 422.104)" font-size="9.9626" font-family="CMR10"><tspan y="-216.561" x="30.029 36.81353 42.352739 46.77613 52.036386 57.575593 61.998987">Encoder</tspan><tspan y="-204.606" x="25.684 29.559453 35.09866 40.358915 45.89812 50.87942 59.17827 61.947874 66.37127">(dynamic)</tspan></text>
<path transform="matrix(1,0,0,-1,-65.424,336.865)" stroke-width=".3985" stroke-linecap="butt" stroke-miterlimit="10" stroke-linejoin="miter" fill="none" stroke="#000000" d="M 113.38724 79.167 L 113.38724 99.41199 "/>
<path transform="matrix(0,-1,-1,-0,47.963235,237.453)" stroke-width=".31879" stroke-linecap="round" stroke-linejoin="round" fill="none" stroke="#000000" d="M -1.19551 1.59401 C -1.09587 .99626 0 .09961 .29886 0 C 0 -.09961 -1.09587 -.99626 -1.19551 -1.59401 "/>
<path transform="matrix(1,0,0,-1,-65.424,336.865)" d="M 96.59276 178.78893 L 130.1817 178.78893 L 130.1817 189.71956 L 96.59276 189.71956 Z M 107.72266 189.71958 L 107.72266 178.78893 M 119.0518 189.71958 L 119.0518 178.78893 " fill="#ffe6cc"/>
<path transform="matrix(1,0,0,-1,-65.424,336.865)" stroke-width=".3985" stroke-linecap="butt" stroke-miterlimit="10" stroke-linejoin="miter" fill="none" stroke="#ff8000" d="M 96.59276 178.78893 L 130.1817 178.78893 L 130.1817 189.71956 L 96.59276 189.71956 Z M 107.72266 189.71958 L 107.72266 178.78893 M 119.0518 189.71958 L 119.0518 178.78893 "/>
<text xml:space="preserve" transform="matrix(1 0 -0 1 -.0000038146974 422.104)" font-size="9.9626" font-family="CMMI10" font-style="italic"><tspan y="-266.732" x="14.604">h</tspan></text>
<text xml:space="preserve" transform="matrix(1 0 -0 1 -.0000038146974 422.104)" font-size="6.9738" font-family="CMR7"><tspan y="-270.348" x="20.344">1</tspan></text>
<text xml:space="preserve" transform="matrix(1 0 -0 1 -.0000038146974 422.104)" font-size="6.9738" font-family="CMMI7" font-style="italic"><tspan y="-264.13899" x="20.344">i</tspan></text>
<path transform="matrix(1,0,0,-1,-65.424,336.865)" stroke-width=".3985" stroke-linecap="butt" stroke-miterlimit="10" stroke-linejoin="miter" fill="none" stroke="#000000" d="M 113.38724 155.25099 L 113.38724 175.49597 "/>
<path transform="matrix(0,-1,-1,-0,47.963235,161.36902)" stroke-width=".31879" stroke-linecap="round" stroke-linejoin="round" fill="none" stroke="#000000" d="M -1.19551 1.59401 C -1.09587 .99626 0 .09961 .29886 0 C 0 -.09961 -1.09587 -.99626 -1.19551 -1.59401 "/>
<path transform="matrix(1,0,0,-1,-65.424,336.865)" d="M 249.0524 24.85568 L 204.49655 24.85568 C 196.6687 24.85568 190.32315 18.51013 190.32315 10.68228 L 190.32315 -10.68228 C 190.32315 -18.51013 196.6687 -24.85568 204.49655 -24.85568 L 249.0524 -24.85568 C 256.88023 -24.85568 263.22578 -18.51013 263.22578 -10.68228 L 263.22578 10.68228 C 263.22578 18.51013 256.88023 24.85568 249.0524 24.85568 Z M 190.32315 -24.85568 " fill="#ccffcc"/>
<path transform="matrix(1,0,0,-1,-65.424,336.865)" stroke-width=".3985" stroke-linecap="butt" stroke-miterlimit="10" stroke-linejoin="miter" fill="none" stroke="#00ff00" d="M 249.0524 24.85568 L 204.49655 24.85568 C 196.6687 24.85568 190.32315 18.51013 190.32315 10.68228 L 190.32315 -10.68228 C 190.32315 -18.51013 196.6687 -24.85568 204.49655 -24.85568 L 249.0524 -24.85568 C 256.88023 -24.85568 263.22578 -18.51013 263.22578 -10.68228 L 263.22578 10.68228 C 263.22578 18.51013 256.88023 24.85568 249.0524 24.85568 Z M 190.32315 -24.85568 "/>
<text xml:space="preserve" transform="matrix(1 0 -0 1 0 422.10398)" font-size="9.9626" font-family="CMR10"><tspan y="-89.002" x="143.553 151.16442 155.58782 160.01122 165.27146 170.81066 175.23406">Decoder</tspan><tspan y="-77.047" x="139.06999 142.94545 148.48465 153.7449 159.2841 164.2654 172.56424 175.33385 179.75725">(dynamic)</tspan></text>
<path transform="matrix(1,0,0,-1,-65.424,336.865)" d="M 221.30915 -62.15894 L 232.23978 -62.15894 L 232.23978 -51.22831 L 221.30915 -51.22831 Z " fill="#ccccff"/>
<path transform="matrix(1,0,0,-1,-65.424,336.865)" stroke-width=".3985" stroke-linecap="butt" stroke-miterlimit="10" stroke-linejoin="miter" fill="none" stroke="#0000ff" d="M 221.30915 -62.15894 L 232.23978 -62.15894 L 232.23978 -51.22831 L 221.30915 -51.22831 Z "/>
<text xml:space="preserve" transform="matrix(1 0 -0 1 0 422.10398)" font-size="9.9626" font-family="CMMI10" font-style="italic"><tspan y="-25.788" x="141.461">t</tspan></text>
<text xml:space="preserve" transform="matrix(1 0 -0 1 0 422.10398)" font-size="6.9738" font-family="CMR7"><tspan y="-29.403" x="145.059">2</tspan></text>
<text xml:space="preserve" transform="matrix(1 0 -0 1 0 422.10398)" font-size="6.9738" font-family="CMMI7" font-style="italic"><tspan y="-23.194" x="145.059">i</tspan></text>
<path transform="matrix(1,0,0,-1,-65.424,336.865)" stroke-width=".3985" stroke-linecap="butt" stroke-miterlimit="10" stroke-linejoin="miter" fill="none" stroke="#000000" d="M 226.77448 -48.39362 L 226.77448 -28.14864 "/>
<path transform="matrix(0,-1,-1,-0,161.35047,365.01365)" stroke-width=".31879" stroke-linecap="round" stroke-linejoin="round" fill="none" stroke="#000000" d="M -1.19551 1.59401 C -1.09587 .99626 0 .09961 .29886 0 C 0 -.09961 -1.09587 -.99626 -1.19551 -1.59401 "/>
<path transform="matrix(1,0,0,-1,-65.424,336.865)" d="M 198.65085 51.22829 L 254.8981 51.22829 L 254.8981 62.15892 L 198.65085 62.15892 Z M 209.78075 62.15894 L 209.78075 51.22829 M 221.1099 62.15894 L 221.1099 51.22829 M 232.43904 62.15894 L 232.43904 51.22829 M 243.7682 62.15894 L 243.7682 51.22829 " fill="#ffe6cc"/>
<path transform="matrix(1,0,0,-1,-65.424,336.865)" stroke-width=".3985" stroke-linecap="butt" stroke-miterlimit="10" stroke-linejoin="miter" fill="none" stroke="#ff8000" d="M 198.65085 51.22829 L 254.8981 51.22829 L 254.8981 62.15892 L 198.65085 62.15892 Z M 209.78075 62.15894 L 209.78075 51.22829 M 221.1099 62.15894 L 221.1099 51.22829 M 232.43904 62.15894 L 232.43904 51.22829 M 243.7682 62.15894 L 243.7682 51.22829 "/>
<text xml:space="preserve" transform="matrix(1 0 -0 1 -.0000076293949 422.104)" font-size="9.9626" font-family="CMR10"><tspan y="-139.173" x="117.34">&#x02dc;</tspan></text>
<text xml:space="preserve" transform="matrix(1 0 -0 1 -.0000076293949 422.104)" font-size="9.9626" font-family="CMMI10" font-style="italic"><tspan y="-139.173" x="116.70699">x</tspan></text>
<text xml:space="preserve" transform="matrix(1 0 -0 1 -.0000076293949 422.104)" font-size="6.9738" font-family="CMR7"><tspan y="-142.789" x="122.40099">2</tspan></text>
<text xml:space="preserve" transform="matrix(1 0 -0 1 -.0000076293949 422.104)" font-size="6.9738" font-family="CMMI7" font-style="italic"><tspan y="-136.58" x="122.40099">i</tspan></text>
<path transform="matrix(1,0,0,-1,-65.424,336.865)" stroke-width=".3985" stroke-linecap="butt" stroke-miterlimit="10" stroke-linejoin="miter" fill="none" stroke="#000000" d="M 226.77448 27.69035 L 226.77448 47.93535 "/>
<path transform="matrix(0,-1,-1,-0,161.35047,288.92964)" stroke-width=".31879" stroke-linecap="round" stroke-linejoin="round" fill="none" stroke="#000000" d="M -1.19551 1.59401 C -1.09587 .99626 0 .09961 .29886 0 C 0 -.09961 -1.09587 -.99626 -1.19551 -1.59401 "/>
<path transform="matrix(1,0,0,-1,-65.424,336.865)" d="M 198.65085 65.40169 L 254.8981 65.40169 L 254.8981 76.33232 L 198.65085 76.33232 Z M 209.78075 76.33234 L 209.78075 65.40169 M 221.1099 76.33234 L 221.1099 65.40169 M 232.43904 76.33234 L 232.43904 65.40169 M 243.7682 76.33234 L 243.7682 65.40169 " fill="#ccccff"/>
<path transform="matrix(1,0,0,-1,-65.424,336.865)" stroke-width=".3985" stroke-linecap="butt" stroke-miterlimit="10" stroke-linejoin="miter" fill="none" stroke="#0000ff" d="M 198.65085 65.40169 L 254.8981 65.40169 L 254.8981 76.33232 L 198.65085 76.33232 Z M 209.78075 76.33234 L 209.78075 65.40169 M 221.1099 76.33234 L 221.1099 65.40169 M 232.43904 76.33234 L 232.43904 65.40169 M 243.7682 76.33234 L 243.7682 65.40169 "/>
<text xml:space="preserve" transform="matrix(1 0 -0 1 -.0000076293949 422.104)" font-size="9.9626" font-family="CMR10"><tspan y="-153.347" x="117.34">&#x02c6;</tspan></text>
<text xml:space="preserve" transform="matrix(1 0 -0 1 -.0000076293949 422.104)" font-size="9.9626" font-family="CMMI10" font-style="italic"><tspan y="-153.347" x="116.70699">x</tspan></text>
<text xml:space="preserve" transform="matrix(1 0 -0 1 -.0000076293949 422.104)" font-size="6.9738" font-family="CMR7"><tspan y="-156.962" x="122.40099">2</tspan></text>
<text xml:space="preserve" transform="matrix(1 0 -0 1 -.0000076293949 422.104)" font-size="6.9738" font-family="CMMI7" font-style="italic"><tspan y="-150.753" x="122.40099">i</tspan></text>
<path transform="matrix(1,0,0,-1,-65.424,336.865)" d="M 249.0524 152.41632 L 204.49655 152.41632 C 196.6687 152.41632 190.32315 146.07077 190.32315 138.24292 L 190.32315 116.87834 C 190.32315 109.05049 196.6687 102.70494 204.49655 102.70494 L 249.0524 102.70494 C 256.88023 102.70494 263.22578 109.05049 263.22578 116.87834 L 263.22578 138.24292 C 263.22578 146.07077 256.88023 152.41632 249.0524 152.41632 Z M 190.32315 102.70494 " fill="#ccffcc"/>
<path transform="matrix(1,0,0,-1,-65.424,336.865)" stroke-width=".3985" stroke-linecap="butt" stroke-miterlimit="10" stroke-linejoin="miter" fill="none" stroke="#00ff00" d="M 249.0524 152.41632 L 204.49655 152.41632 C 196.6687 152.41632 190.32315 146.07077 190.32315 138.24292 L 190.32315 116.87834 C 190.32315 109.05049 196.6687 102.70494 204.49655 102.70494 L 249.0524 102.70494 C 256.88023 102.70494 263.22578 109.05049 263.22578 116.87834 L 263.22578 138.24292 C 263.22578 146.07077 256.88023 152.41632 249.0524 152.41632 Z M 190.32315 102.70494 "/>
<text xml:space="preserve" transform="matrix(1 0 -0 1 0 422.104)" font-size="9.9626" font-family="CMR10"><tspan y="-216.561" x="143.415 150.19953 155.73873 160.16213 165.42237 170.96157 175.38497">Encoder</tspan><tspan y="-204.606" x="139.06999 142.94545 148.48465 153.7449 159.2841 164.2654 172.56424 175.33385 179.75725">(dynamic)</tspan></text>
<path transform="matrix(1,0,0,-1,-65.424,336.865)" stroke-width=".3985" stroke-linecap="butt" stroke-miterlimit="10" stroke-linejoin="miter" fill="none" stroke="#000000" d="M 226.77448 79.167 L 226.77448 99.41199 "/>
<path transform="matrix(0,-1,-1,-0,161.35047,237.453)" stroke-width=".31879" stroke-linecap="round" stroke-linejoin="round" fill="none" stroke="#000000" d="M -1.19551 1.59401 C -1.09587 .99626 0 .09961 .29886 0 C 0 -.09961 -1.09587 -.99626 -1.19551 -1.59401 "/>
<path transform="matrix(1,0,0,-1,-65.424,336.865)" d="M 209.98 178.78893 L 243.56894 178.78893 L 243.56894 189.71956 L 209.98 189.71956 Z M 221.1099 189.71958 L 221.1099 178.78893 M 232.43904 189.71958 L 232.43904 178.78893 " fill="#ffe6cc"/>
<path transform="matrix(1,0,0,-1,-65.424,336.865)" stroke-width=".3985" stroke-linecap="butt" stroke-miterlimit="10" stroke-linejoin="miter" fill="none" stroke="#ff8000" d="M 209.98 178.78893 L 243.56894 178.78893 L 243.56894 189.71956 L 209.98 189.71956 Z M 221.1099 189.71958 L 221.1099 178.78893 M 232.43904 189.71958 L 232.43904 178.78893 "/>
<text xml:space="preserve" transform="matrix(1 0 -0 1 -.0000076293949 422.104)" font-size="9.9626" font-family="CMMI10" font-style="italic"><tspan y="-266.732" x="127.989">h</tspan></text>
<text xml:space="preserve" transform="matrix(1 0 -0 1 -.0000076293949 422.104)" font-size="6.9738" font-family="CMR7"><tspan y="-270.348" x="133.729">2</tspan></text>
<text xml:space="preserve" transform="matrix(1 0 -0 1 -.0000076293949 422.104)" font-size="6.9738" font-family="CMMI7" font-style="italic"><tspan y="-264.13899" x="133.729">i</tspan></text>
<path transform="matrix(1,0,0,-1,-65.424,336.865)" stroke-width=".3985" stroke-linecap="butt" stroke-miterlimit="10" stroke-linejoin="miter" fill="none" stroke="#000000" d="M 226.77448 155.25099 L 226.77448 175.49597 "/>
<path transform="matrix(0,-1,-1,-0,161.35047,161.36902)" stroke-width=".31879" stroke-linecap="round" stroke-linejoin="round" fill="none" stroke="#000000" d="M -1.19551 1.59401 C -1.09587 .99626 0 .09961 .29886 0 C 0 -.09961 -1.09587 -.99626 -1.19551 -1.59401 "/>
<path transform="matrix(1,0,0,-1,-65.424,336.865)" d="M 362.43965 24.85568 L 317.8838 24.85568 C 310.05595 24.85568 303.7104 18.51013 303.7104 10.68228 L 303.7104 -10.68228 C 303.7104 -18.51013 310.05595 -24.85568 317.8838 -24.85568 L 362.43965 -24.85568 C 370.2675 -24.85568 376.61305 -18.51013 376.61305 -10.68228 L 376.61305 10.68228 C 376.61305 18.51013 370.2675 24.85568 362.43965 24.85568 Z M 303.7104 -24.85568 " fill="#ccffcc"/>
<path transform="matrix(1,0,0,-1,-65.424,336.865)" stroke-width=".3985" stroke-linecap="butt" stroke-miterlimit="10" stroke-linejoin="miter" fill="none" stroke="#00ff00" d="M 362.43965 24.85568 L 317.8838 24.85568 C 310.05595 24.85568 303.7104 18.51013 303.7104 10.68228 L 303.7104 -10.68228 C 303.7104 -18.51013 310.05595 -24.85568 317.8838 -24.85568 L 362.43965 -24.85568 C 370.2675 -24.85568 376.61305 -18.51013 376.61305 -10.68228 L 376.61305 10.68228 C 376.61305 18.51013 370.2675 24.85568 362.43965 24.85568 Z M 303.7104 -24.85568 "/>
<text xml:space="preserve" transform="matrix(1 0 -0 1 0 422.10398)" font-size="9.9626" font-family="CMR10"><tspan y="-89.002" x="256.939 264.5504 268.97383 273.39723 278.65748 284.1967 288.6201">Decoder</tspan><tspan y="-77.047" x="252.456 256.33146 261.87068 267.13093 272.67015 277.65144 285.9503 288.71989 293.14329">(dynamic)</tspan></text>
<path transform="matrix(1,0,0,-1,-65.424,336.865)" d="M 334.69639 -62.15894 L 345.627 -62.15894 L 345.627 -51.22831 L 334.69639 -51.22831 Z " fill="#ccccff"/>
<path transform="matrix(1,0,0,-1,-65.424,336.865)" stroke-width=".3985" stroke-linecap="butt" stroke-miterlimit="10" stroke-linejoin="miter" fill="none" stroke="#0000ff" d="M 334.69639 -62.15894 L 345.627 -62.15894 L 345.627 -51.22831 L 334.69639 -51.22831 Z "/>
<text xml:space="preserve" transform="matrix(1 0 -0 1 -.000015258789 422.10398)" font-size="9.9626" font-family="CMMI10" font-style="italic"><tspan y="-25.788" x="254.847">t</tspan></text>
<text xml:space="preserve" transform="matrix(1 0 -0 1 -.000015258789 422.10398)" font-size="6.9738" font-family="CMR7"><tspan y="-29.403" x="258.444">3</tspan></text>
<text xml:space="preserve" transform="matrix(1 0 -0 1 -.000015258789 422.10398)" font-size="6.9738" font-family="CMMI7" font-style="italic"><tspan y="-23.194" x="258.444">i</tspan></text>
<path transform="matrix(1,0,0,-1,-65.424,336.865)" stroke-width=".3985" stroke-linecap="butt" stroke-miterlimit="10" stroke-linejoin="miter" fill="none" stroke="#000000" d="M 340.1617 -48.39362 L 340.1617 -28.14864 "/>
<path transform="matrix(0,-1,-1,-0,274.7377,365.01365)" stroke-width=".31879" stroke-linecap="round" stroke-linejoin="round" fill="none" stroke="#000000" d="M -1.19551 1.59401 C -1.09587 .99626 0 .09961 .29886 0 C 0 -.09961 -1.09587 -.99626 -1.19551 -1.59401 "/>
<path transform="matrix(1,0,0,-1,-65.424,336.865)" d="M 312.0381 51.22829 L 368.28535 51.22829 L 368.28535 62.15892 L 312.0381 62.15892 Z M 323.16798 62.15894 L 323.16798 51.22829 M 334.49714 62.15894 L 334.49714 51.22829 M 345.8263 62.15894 L 345.8263 51.22829 M 357.15544 62.15894 L 357.15544 51.22829 " fill="#ffe6cc"/>
<path transform="matrix(1,0,0,-1,-65.424,336.865)" stroke-width=".3985" stroke-linecap="butt" stroke-miterlimit="10" stroke-linejoin="miter" fill="none" stroke="#ff8000" d="M 312.0381 51.22829 L 368.28535 51.22829 L 368.28535 62.15892 L 312.0381 62.15892 Z M 323.16798 62.15894 L 323.16798 51.22829 M 334.49714 62.15894 L 334.49714 51.22829 M 345.8263 62.15894 L 345.8263 51.22829 M 357.15544 62.15894 L 357.15544 51.22829 "/>
<text xml:space="preserve" transform="matrix(1 0 -0 1 -.000015258789 422.104)" font-size="9.9626" font-family="CMR10"><tspan y="-139.174" x="230.725">&#x02dc;</tspan></text>
<text xml:space="preserve" transform="matrix(1 0 -0 1 -.000015258789 422.104)" font-size="9.9626" font-family="CMMI10" font-style="italic"><tspan y="-139.174" x="230.09201">x</tspan></text>
<text xml:space="preserve" transform="matrix(1 0 -0 1 -.000015258789 422.104)" font-size="6.9738" font-family="CMR7"><tspan y="-142.789" x="235.78601">3</tspan></text>
<text xml:space="preserve" transform="matrix(1 0 -0 1 -.000015258789 422.104)" font-size="6.9738" font-family="CMMI7" font-style="italic"><tspan y="-136.58" x="235.78601">i</tspan></text>
<path transform="matrix(1,0,0,-1,-65.424,336.865)" stroke-width=".3985" stroke-linecap="butt" stroke-miterlimit="10" stroke-linejoin="miter" fill="none" stroke="#000000" d="M 340.1617 27.69035 L 340.1617 47.93535 "/>
<path transform="matrix(0,-1,-1,-0,274.7377,288.92964)" stroke-width=".31879" stroke-linecap="round" stroke-linejoin="round" fill="none" stroke="#000000" d="M -1.19551 1.59401 C -1.09587 .99626 0 .09961 .29886 0 C 0 -.09961 -1.09587 -.99626 -1.19551 -1.59401 "/>
<path transform="matrix(1,0,0,-1,-65.424,336.865)" d="M 312.0381 65.40169 L 368.28535 65.40169 L 368.28535 76.33232 L 312.0381 76.33232 Z M 323.16798 76.33234 L 323.16798 65.40169 M 334.49714 76.33234 L 334.49714 65.40169 M 345.8263 76.33234 L 345.8263 65.40169 M 357.15544 76.33234 L 357.15544 65.40169 " fill="#ccccff"/>
<path transform="matrix(1,0,0,-1,-65.424,336.865)" stroke-width=".3985" stroke-linecap="butt" stroke-miterlimit="10" stroke-linejoin="miter" fill="none" stroke="#0000ff" d="M 312.0381 65.40169 L 368.28535 65.40169 L 368.28535 76.33232 L 312.0381 76.33232 Z M 323.16798 76.33234 L 323.16798 65.40169 M 334.49714 76.33234 L 334.49714 65.40169 M 345.8263 76.33234 L 345.8263 65.40169 M 357.15544 76.33234 L 357.15544 65.40169 "/>
<text xml:space="preserve" transform="matrix(1 0 -0 1 -.000015258789 422.104)" font-size="9.9626" font-family="CMR10"><tspan y="-153.347" x="230.725">&#x02c6;</tspan></text>
<text xml:space="preserve" transform="matrix(1 0 -0 1 -.000015258789 422.104)" font-size="9.9626" font-family="CMMI10" font-style="italic"><tspan y="-153.347" x="230.09201">x</tspan></text>
<text xml:space="preserve" transform="matrix(1 0 -0 1 -.000015258789 422.104)" font-size="6.9738" font-family="CMR7"><tspan y="-156.962" x="235.78601">3</tspan></text>
<text xml:space="preserve" transform="matrix(1 0 -0 1 -.000015258789 422.104)" font-size="6.9738" font-family="CMMI7" font-style="italic"><tspan y="-150.754" x="235.78601">i</tspan></text>
<path transform="matrix(1,0,0,-1,-65.424,336.865)" d="M 362.43965 152.41632 L 317.8838 152.41632 C 310.05595 152.41632 303.7104 146.07077 303.7104 138.24292 L 303.7104 116.87834 C 303.7104 109.05049 310.05595 102.70494 317.8838 102.70494 L 362.43965 102.70494 C 370.2675 102.70494 376.61305 109.05049 376.61305 116.87834 L 376.61305 138.24292 C 376.61305 146.07077 370.2675 152.41632 362.43965 152.41632 Z M 303.7104 102.70494 " fill="#ccffcc"/>
<path transform="matrix(1,0,0,-1,-65.424,336.865)" stroke-width=".3985" stroke-linecap="butt" stroke-miterlimit="10" stroke-linejoin="miter" fill="none" stroke="#00ff00" d="M 362.43965 152.41632 L 317.8838 152.41632 C 310.05595 152.41632 303.7104 146.07077 303.7104 138.24292 L 303.7104 116.87834 C 303.7104 109.05049 310.05595 102.70494 317.8838 102.70494 L 362.43965 102.70494 C 370.2675 102.70494 376.61305 109.05049 376.61305 116.87834 L 376.61305 138.24292 C 376.61305 146.07077 370.2675 152.41632 362.43965 152.41632 Z M 303.7104 102.70494 "/>
<text xml:space="preserve" transform="matrix(1 0 -0 1 0 422.104)" font-size="9.9626" font-family="CMR10"><tspan y="-216.562" x="256.801 263.58555 269.12477 273.54817 278.8084 284.34764 288.77104">Encoder</tspan><tspan y="-204.606" x="252.456 256.33146 261.87068 267.13093 272.67015 277.65144 285.9503 288.71989 293.14329">(dynamic)</tspan></text>
<path transform="matrix(1,0,0,-1,-65.424,336.865)" stroke-width=".3985" stroke-linecap="butt" stroke-miterlimit="10" stroke-linejoin="miter" fill="none" stroke="#000000" d="M 340.1617 79.167 L 340.1617 99.41199 "/>
<path transform="matrix(0,-1,-1,-0,274.7377,237.453)" stroke-width=".31879" stroke-linecap="round" stroke-linejoin="round" fill="none" stroke="#000000" d="M -1.19551 1.59401 C -1.09587 .99626 0 .09961 .29886 0 C 0 -.09961 -1.09587 -.99626 -1.19551 -1.59401 "/>
<path transform="matrix(1,0,0,-1,-65.424,336.865)" d="M 323.36723 178.78893 L 356.95616 178.78893 L 356.95616 189.71956 L 323.36723 189.71956 Z M 334.49714 189.71958 L 334.49714 178.78893 M 345.8263 189.71958 L 345.8263 178.78893 " fill="#ffe6cc"/>
<path transform="matrix(1,0,0,-1,-65.424,336.865)" stroke-width=".3985" stroke-linecap="butt" stroke-miterlimit="10" stroke-linejoin="miter" fill="none" stroke="#ff8000" d="M 323.36723 178.78893 L 356.95616 178.78893 L 356.95616 189.71956 L 323.36723 189.71956 Z M 334.49714 189.71958 L 334.49714 178.78893 M 345.8263 189.71958 L 345.8263 178.78893 "/>
<text xml:space="preserve" transform="matrix(1 0 -0 1 0 422.104)" font-size="9.9626" font-family="CMMI10" font-style="italic"><tspan y="-266.733" x="241.375">h</tspan></text>
<text xml:space="preserve" transform="matrix(1 0 -0 1 0 422.104)" font-size="6.9738" font-family="CMR7"><tspan y="-270.348" x="247.115">3</tspan></text>
<text xml:space="preserve" transform="matrix(1 0 -0 1 0 422.104)" font-size="6.9738" font-family="CMMI7" font-style="italic"><tspan y="-264.13899" x="247.115">i</tspan></text>
<path transform="matrix(1,0,0,-1,-65.424,336.865)" stroke-width=".3985" stroke-linecap="butt" stroke-miterlimit="10" stroke-linejoin="miter" fill="none" stroke="#000000" d="M 340.1617 155.25099 L 340.1617 175.49597 "/>
<path transform="matrix(0,-1,-1,-0,274.7377,161.36902)" stroke-width=".31879" stroke-linecap="round" stroke-linejoin="round" fill="none" stroke="#000000" d="M -1.19551 1.59401 C -1.09587 .99626 0 .09961 .29886 0 C 0 -.09961 -1.09587 -.99626 -1.19551 -1.59401 "/>
<path transform="matrix(1,0,0,-1,-65.424,336.865)" stroke-width=".3985" stroke-linecap="butt" stroke-miterlimit="10" stroke-linejoin="miter" fill="none" stroke="#000000" d="M 152.67322 127.56062 L 187.03022 127.56062 "/>
<path transform="matrix(1,0,0,-1,121.60621,209.30437)" stroke-width=".31879" stroke-linecap="round" stroke-linejoin="round" fill="none" stroke="#000000" d="M -1.19551 1.59401 C -1.09587 .99626 0 .09961 .29886 0 C 0 -.09961 -1.09587 -.99626 -1.19551 -1.59401 "/>
<text xml:space="preserve" transform="matrix(1 0 -0 1 0 422.104)" font-size="9.9626" font-family="CMMI10" font-style="italic"><tspan y="-201.168" x="100.264">c</tspan></text>
<text xml:space="preserve" transform="matrix(1 0 -0 1 0 422.104)" font-size="6.9738" font-family="CMR7"><tspan y="-204.784" x="104.576">1</tspan></text>
<text xml:space="preserve" transform="matrix(1 0 -0 1 0 422.104)" font-size="6.9738" font-family="CMMI7" font-style="italic"><tspan y="-198.575" x="104.576">i</tspan></text>
<path transform="matrix(1,0,0,-1,-65.424,336.865)" stroke-width=".3985" stroke-linecap="butt" stroke-miterlimit="10" stroke-linejoin="miter" fill="none" stroke="#000000" d="M 133.01638 184.25424 L 187.17099 127.89107 "/>
<path transform="matrix(.69281,.72107,.72107,-.69281,121.74697,208.97393)" stroke-width=".31879" stroke-linecap="round" stroke-linejoin="round" fill="none" stroke="#000000" d="M -1.19551 1.59401 C -1.09587 .99626 0 .09961 .29886 0 C 0 -.09961 -1.09587 -.99626 -1.19551 -1.59401 "/>
<path transform="matrix(1,0,0,-1,-65.424,336.865)" stroke-width=".3985" stroke-linecap="butt" stroke-miterlimit="10" stroke-linejoin="miter" fill="none" stroke="#000000" d="M 266.06047 127.56062 L 300.41746 127.56062 "/>
<path transform="matrix(1,0,0,-1,234.99344,209.30437)" stroke-width=".31879" stroke-linecap="round" stroke-linejoin="round" fill="none" stroke="#000000" d="M -1.19551 1.59401 C -1.09587 .99626 0 .09961 .29886 0 C 0 -.09961 -1.09587 -.99626 -1.19551 -1.59401 "/>
<text xml:space="preserve" transform="matrix(1 0 -0 1 0 422.104)" font-size="9.9626" font-family="CMMI10" font-style="italic"><tspan y="-201.168" x="213.65">c</tspan></text>
<text xml:space="preserve" transform="matrix(1 0 -0 1 0 422.104)" font-size="6.9738" font-family="CMR7"><tspan y="-204.784" x="217.961">2</tspan></text>
<text xml:space="preserve" transform="matrix(1 0 -0 1 0 422.104)" font-size="6.9738" font-family="CMMI7" font-style="italic"><tspan y="-198.575" x="217.961">i</tspan></text>
<path transform="matrix(1,0,0,-1,-65.424,336.865)" stroke-width=".3985" stroke-linecap="butt" stroke-miterlimit="10" stroke-linejoin="miter" fill="none" stroke="#000000" d="M 246.40361 184.25424 L 300.55824 127.89107 "/>
<path transform="matrix(.69281,.72107,.72107,-.69281,235.13419,208.97393)" stroke-width=".31879" stroke-linecap="round" stroke-linejoin="round" fill="none" stroke="#000000" d="M -1.19551 1.59401 C -1.09587 .99626 0 .09961 .29886 0 C 0 -.09961 -1.09587 -.99626 -1.19551 -1.59401 "/>
<path transform="matrix(1,0,0,-1,-65.424,336.865)" d="M 589.2141 24.85568 L 544.65829 24.85568 C 536.8304 24.85568 530.48489 18.51013 530.48489 10.68228 L 530.48489 -10.68228 C 530.48489 -18.51013 536.8304 -24.85568 544.65829 -24.85568 L 589.2141 -24.85568 C 597.04196 -24.85568 603.3875 -18.51013 603.3875 -10.68228 L 603.3875 10.68228 C 603.3875 18.51013 597.04196 24.85568 589.2141 24.85568 Z M 530.48489 -24.85568 " fill="#ccffcc"/>
<path transform="matrix(1,0,0,-1,-65.424,336.865)" stroke-width=".3985" stroke-linecap="butt" stroke-miterlimit="10" stroke-linejoin="miter" fill="none" stroke="#00ff00" d="M 589.2141 24.85568 L 544.65829 24.85568 C 536.8304 24.85568 530.48489 18.51013 530.48489 10.68228 L 530.48489 -10.68228 C 530.48489 -18.51013 536.8304 -24.85568 544.65829 -24.85568 L 589.2141 -24.85568 C 597.04196 -24.85568 603.3875 -18.51013 603.3875 -10.68228 L 603.3875 10.68228 C 603.3875 18.51013 597.04196 24.85568 589.2141 24.85568 Z M 530.48489 -24.85568 "/>
<text xml:space="preserve" transform="matrix(1 0 -0 1 0 422.10398)" font-size="9.9626" font-family="CMR10"><tspan y="-89.003" x="483.71 491.3214 495.7448 500.1682 505.42848 510.96769 515.39108">Decoder</tspan><tspan y="-77.047" x="479.227 483.10246 488.64167 493.90193 499.44114 504.42243 512.72128 515.49087 519.91427">(dynamic)</tspan></text>
<path transform="matrix(1,0,0,-1,-65.424,336.865)" d="M 561.4709 -62.15894 L 572.4015 -62.15894 L 572.4015 -51.22831 L 561.4709 -51.22831 Z " fill="#ccccff"/>
<path transform="matrix(1,0,0,-1,-65.424,336.865)" stroke-width=".3985" stroke-linecap="butt" stroke-miterlimit="10" stroke-linejoin="miter" fill="none" stroke="#0000ff" d="M 561.4709 -62.15894 L 572.4015 -62.15894 L 572.4015 -51.22831 L 561.4709 -51.22831 Z "/>
<text xml:space="preserve" transform="matrix(1 0 -0 1 -.000030517579 422.104)" font-size="9.9626" font-family="CMMI10" font-style="italic"><tspan y="-26.534" x="480.665">t</tspan></text>
<text xml:space="preserve" transform="matrix(1 0 -0 1 -.000030517579 422.104)" font-size="6.9738" font-family="CMMI7" font-style="italic"><tspan y="-30.149" x="484.262">n</tspan><tspan y="-23.94" x="484.262">i</tspan></text>
<path transform="matrix(1,0,0,-1,-65.424,336.865)" stroke-width=".3985" stroke-linecap="butt" stroke-miterlimit="10" stroke-linejoin="miter" fill="none" stroke="#000000" d="M 566.9362 -48.39362 L 566.9362 -28.14864 "/>
<path transform="matrix(0,-1,-1,-0,501.5122,365.01365)" stroke-width=".31879" stroke-linecap="round" stroke-linejoin="round" fill="none" stroke="#000000" d="M -1.19551 1.59401 C -1.09587 .99626 0 .09961 .29886 0 C 0 -.09961 -1.09587 -.99626 -1.19551 -1.59401 "/>
<path transform="matrix(1,0,0,-1,-65.424,336.865)" d="M 538.81259 51.22829 L 595.0598 51.22829 L 595.0598 62.15892 L 538.81259 62.15892 Z M 549.94247 62.15894 L 549.94247 51.22829 M 561.2716 62.15894 L 561.2716 51.22829 M 572.60079 62.15894 L 572.60079 51.22829 M 583.92996 62.15894 L 583.92996 51.22829 " fill="#ffe6cc"/>
<path transform="matrix(1,0,0,-1,-65.424,336.865)" stroke-width=".3985" stroke-linecap="butt" stroke-miterlimit="10" stroke-linejoin="miter" fill="none" stroke="#ff8000" d="M 538.81259 51.22829 L 595.0598 51.22829 L 595.0598 62.15892 L 538.81259 62.15892 Z M 549.94247 62.15894 L 549.94247 51.22829 M 561.2716 62.15894 L 561.2716 51.22829 M 572.60079 62.15894 L 572.60079 51.22829 M 583.92996 62.15894 L 583.92996 51.22829 "/>
<text xml:space="preserve" transform="matrix(1 0 -0 1 -.000030517579 422.104)" font-size="9.9626" font-family="CMR10"><tspan y="-139.605" x="453.387">&#x02dc;</tspan></text>
<text xml:space="preserve" transform="matrix(1 0 -0 1 -.000030517579 422.104)" font-size="9.9626" font-family="CMMI10" font-style="italic"><tspan y="-139.605" x="452.754">x</tspan></text>
<text xml:space="preserve" transform="matrix(1 0 -0 1 -.000030517579 422.104)" font-size="6.9738" font-family="CMMI7" font-style="italic"><tspan y="-144.03299" x="458.448">n</tspan></text>
<text xml:space="preserve" transform="matrix(1 0 -0 1 -.000030517579 422.104)" font-size="4.9813" font-family="CMMI5" font-style="italic"><tspan y="-143.03699" x="463.373">i</tspan></text>
<text xml:space="preserve" transform="matrix(1 0 -0 1 -.000030517579 422.104)" font-size="6.9738" font-family="CMMI7" font-style="italic"><tspan y="-136.82799" x="458.448">i</tspan></text>
<path transform="matrix(1,0,0,-1,-65.424,336.865)" stroke-width=".3985" stroke-linecap="butt" stroke-miterlimit="10" stroke-linejoin="miter" fill="none" stroke="#000000" d="M 566.9362 27.69035 L 566.9362 47.93535 "/>
<path transform="matrix(0,-1,-1,-0,501.5122,288.92964)" stroke-width=".31879" stroke-linecap="round" stroke-linejoin="round" fill="none" stroke="#000000" d="M -1.19551 1.59401 C -1.09587 .99626 0 .09961 .29886 0 C 0 -.09961 -1.09587 -.99626 -1.19551 -1.59401 "/>
<path transform="matrix(1,0,0,-1,-65.424,336.865)" d="M 538.81259 65.40169 L 595.0598 65.40169 L 595.0598 76.33232 L 538.81259 76.33232 Z M 549.94247 76.33234 L 549.94247 65.40169 M 561.2716 76.33234 L 561.2716 65.40169 M 572.60079 76.33234 L 572.60079 65.40169 M 583.92996 76.33234 L 583.92996 65.40169 " fill="#ccccff"/>
<path transform="matrix(1,0,0,-1,-65.424,336.865)" stroke-width=".3985" stroke-linecap="butt" stroke-miterlimit="10" stroke-linejoin="miter" fill="none" stroke="#0000ff" d="M 538.81259 65.40169 L 595.0598 65.40169 L 595.0598 76.33232 L 538.81259 76.33232 Z M 549.94247 76.33234 L 549.94247 65.40169 M 561.2716 76.33234 L 561.2716 65.40169 M 572.60079 76.33234 L 572.60079 65.40169 M 583.92996 76.33234 L 583.92996 65.40169 "/>
<text xml:space="preserve" transform="matrix(1 0 -0 1 -.000030517579 422.104)" font-size="9.9626" font-family="CMR10"><tspan y="-153.778" x="453.387">&#x02c6;</tspan></text>
<text xml:space="preserve" transform="matrix(1 0 -0 1 -.000030517579 422.104)" font-size="9.9626" font-family="CMMI10" font-style="italic"><tspan y="-153.778" x="452.754">x</tspan></text>
<text xml:space="preserve" transform="matrix(1 0 -0 1 -.000030517579 422.104)" font-size="6.9738" font-family="CMMI7" font-style="italic"><tspan y="-158.206" x="458.448">n</tspan></text>
<text xml:space="preserve" transform="matrix(1 0 -0 1 -.000030517579 422.104)" font-size="4.9813" font-family="CMMI5" font-style="italic"><tspan y="-157.20999" x="463.373">i</tspan></text>
<text xml:space="preserve" transform="matrix(1 0 -0 1 -.000030517579 422.104)" font-size="6.9738" font-family="CMMI7" font-style="italic"><tspan y="-151.00099" x="458.448">i</tspan></text>
<path transform="matrix(1,0,0,-1,-65.424,336.865)" d="M 589.2141 152.41632 L 544.65829 152.41632 C 536.8304 152.41632 530.48489 146.07077 530.48489 138.24292 L 530.48489 116.87834 C 530.48489 109.05049 536.8304 102.70494 544.65829 102.70494 L 589.2141 102.70494 C 597.04196 102.70494 603.3875 109.05049 603.3875 116.87834 L 603.3875 138.24292 C 603.3875 146.07077 597.04196 152.41632 589.2141 152.41632 Z M 530.48489 102.70494 " fill="#ccffcc"/>
<path transform="matrix(1,0,0,-1,-65.424,336.865)" stroke-width=".3985" stroke-linecap="butt" stroke-miterlimit="10" stroke-linejoin="miter" fill="none" stroke="#00ff00" d="M 589.2141 152.41632 L 544.65829 152.41632 C 536.8304 152.41632 530.48489 146.07077 530.48489 138.24292 L 530.48489 116.87834 C 530.48489 109.05049 536.8304 102.70494 544.65829 102.70494 L 589.2141 102.70494 C 597.04196 102.70494 603.3875 109.05049 603.3875 116.87834 L 603.3875 138.24292 C 603.3875 146.07077 597.04196 152.41632 589.2141 152.41632 Z M 530.48489 102.70494 "/>
<text xml:space="preserve" transform="matrix(1 0 -0 1 0 422.104)" font-size="9.9626" font-family="CMR10"><tspan y="-216.561" x="483.572 490.35655 495.89576 500.31916 505.5794 511.11863 515.542">Encoder</tspan><tspan y="-204.606" x="479.227 483.10246 488.64167 493.90193 499.44114 504.42243 512.72128 515.49087 519.91427">(dynamic)</tspan></text>
<path transform="matrix(1,0,0,-1,-65.424,336.865)" stroke-width=".3985" stroke-linecap="butt" stroke-miterlimit="10" stroke-linejoin="miter" fill="none" stroke="#000000" d="M 566.9362 79.167 L 566.9362 99.41199 "/>
<path transform="matrix(0,-1,-1,-0,501.5122,237.453)" stroke-width=".31879" stroke-linecap="round" stroke-linejoin="round" fill="none" stroke="#000000" d="M -1.19551 1.59401 C -1.09587 .99626 0 .09961 .29886 0 C 0 -.09961 -1.09587 -.99626 -1.19551 -1.59401 "/>
<path transform="matrix(1,0,0,-1,-65.424,336.865)" d="M 550.1417 178.78893 L 583.73068 178.78893 L 583.73068 189.71956 L 550.1417 189.71956 Z M 561.2716 189.71958 L 561.2716 178.78893 M 572.60079 189.71958 L 572.60079 178.78893 " fill="#ffe6cc"/>
<path transform="matrix(1,0,0,-1,-65.424,336.865)" stroke-width=".3985" stroke-linecap="butt" stroke-miterlimit="10" stroke-linejoin="miter" fill="none" stroke="#ff8000" d="M 550.1417 178.78893 L 583.73068 178.78893 L 583.73068 189.71956 L 550.1417 189.71956 Z M 561.2716 189.71958 L 561.2716 178.78893 M 572.60079 189.71958 L 572.60079 178.78893 "/>
<text xml:space="preserve" transform="matrix(1 0 -0 1 0 422.104)" font-size="9.9626" font-family="CMMI10" font-style="italic"><tspan y="-266.65" x="446.572">z</tspan></text>
<text xml:space="preserve" transform="matrix(1 0 -0 1 0 422.104)" font-size="6.9738" font-family="CMMI7" font-style="italic"><tspan y="-270.26499" x="451.643">d</tspan><tspan y="-264.05699" x="451.20503">i</tspan></text>
<text xml:space="preserve" transform="matrix(1 0 -0 1 0 422.104)" font-size="9.9626" font-family="CMR10"><tspan y="-266.64997" x="456.28804">=</tspan></text>
<text xml:space="preserve" transform="matrix(1 0 -0 1 0 422.104)" font-size="9.9626" font-family="CMMI10" font-style="italic"><tspan y="-266.64997" x="464.03703">h</tspan></text>
<text xml:space="preserve" transform="matrix(1 0 -0 1 0 422.104)" font-size="6.9738" font-family="CMMI7" font-style="italic"><tspan y="-271.07798" x="469.777">n</tspan></text>
<text xml:space="preserve" transform="matrix(1 0 -0 1 0 422.104)" font-size="4.9813" font-family="CMMI5" font-style="italic"><tspan y="-270.08198" x="474.702">i</tspan></text>
<text xml:space="preserve" transform="matrix(1 0 -0 1 0 422.104)" font-size="6.9738" font-family="CMMI7" font-style="italic"><tspan y="-263.87297" x="469.777">i</tspan></text>
<path transform="matrix(1,0,0,-1,-65.424,336.865)" stroke-width=".3985" stroke-linecap="butt" stroke-miterlimit="10" stroke-linejoin="miter" fill="none" stroke="#000000" d="M 566.9362 155.25099 L 566.9362 175.49597 "/>
<path transform="matrix(0,-1,-1,-0,501.5122,161.36902)" stroke-width=".31879" stroke-linecap="round" stroke-linejoin="round" fill="none" stroke="#000000" d="M -1.19551 1.59401 C -1.09587 .99626 0 .09961 .29886 0 C 0 -.09961 -1.09587 -.99626 -1.19551 -1.59401 "/>
<path transform="matrix(1,0,0,-1,-65.424,336.865)" d="M 460.19078 148.23749 L 446.90715 148.23749 C 439.07929 148.23749 432.73374 141.89194 432.73374 134.0641 L 432.73374 121.05716 C 432.73374 113.22931 439.07929 106.88376 446.90715 106.88376 L 460.19078 106.88376 C 468.01863 106.88376 474.36418 113.22931 474.36418 121.05716 L 474.36418 134.0641 C 474.36418 141.89194 468.01863 148.23749 460.19078 148.23749 Z M 432.73374 106.88376 " fill="#ccffcc"/>
<path transform="matrix(1,0,0,-1,-65.424,336.865)" stroke-width=".3985" stroke-linecap="butt" stroke-miterlimit="10" stroke-linejoin="miter" fill="none" stroke="#00ff00" d="M 460.19078 148.23749 L 446.90715 148.23749 C 439.07929 148.23749 432.73374 141.89194 432.73374 134.0641 L 432.73374 121.05716 C 432.73374 113.22931 439.07929 106.88376 446.90715 106.88376 L 460.19078 106.88376 C 468.01863 106.88376 474.36418 113.22931 474.36418 121.05716 L 474.36418 134.0641 C 474.36418 141.89194 468.01863 148.23749 460.19078 148.23749 Z M 432.73374 106.88376 "/>
<text xml:space="preserve" transform="matrix(1 0 -0 1 0 422.104)" font-size="9.9626" font-family="CMR10"><tspan y="-218.25" x="381.477 385.91035 390.3337">...</tspan></text>
<path transform="matrix(1,0,0,-1,-65.424,336.865)" d="M 460.19078 20.67685 L 446.90715 20.67685 C 439.07929 20.67685 432.73374 14.33131 432.73374 6.50346 L 432.73374 -6.50346 C 432.73374 -14.33131 439.07929 -20.67685 446.90715 -20.67685 L 460.19078 -20.67685 C 468.01863 -20.67685 474.36418 -14.33131 474.36418 -6.50346 L 474.36418 6.50346 C 474.36418 14.33131 468.01863 20.67685 460.19078 20.67685 Z M 432.73374 -20.67685 " fill="#ccffcc"/>
<path transform="matrix(1,0,0,-1,-65.424,336.865)" stroke-width=".3985" stroke-linecap="butt" stroke-miterlimit="10" stroke-linejoin="miter" fill="none" stroke="#00ff00" d="M 460.19078 20.67685 L 446.90715 20.67685 C 439.07929 20.67685 432.73374 14.33131 432.73374 6.50346 L 432.73374 -6.50346 C 432.73374 -14.33131 439.07929 -20.67685 446.90715 -20.67685 L 460.19078 -20.67685 C 468.01863 -20.67685 474.36418 -14.33131 474.36418 -6.50346 L 474.36418 6.50346 C 474.36418 14.33131 468.01863 20.67685 460.19078 20.67685 Z M 432.73374 -20.67685 "/>
<text xml:space="preserve" transform="matrix(1 0 -0 1 0 422.104)" font-size="9.9626" font-family="CMR10"><tspan y="-90.691" x="381.477 385.91035 390.3337">...</tspan></text>
<path transform="matrix(1,0,0,-1,-65.424,336.865)" d="M 425.42533 51.22829 L 481.67259 51.22829 L 481.67259 62.15892 L 425.42533 62.15892 Z M 436.5552 62.15894 L 436.5552 51.22829 M 447.88438 62.15894 L 447.88438 51.22829 M 459.21354 62.15894 L 459.21354 51.22829 M 470.5427 62.15894 L 470.5427 51.22829 " fill="#ffe6cc"/>
<path transform="matrix(1,0,0,-1,-65.424,336.865)" stroke-width=".3985" stroke-linecap="butt" stroke-miterlimit="10" stroke-linejoin="miter" fill="none" stroke="#ff8000" d="M 425.42533 51.22829 L 481.67259 51.22829 L 481.67259 62.15892 L 425.42533 62.15892 Z M 436.5552 62.15894 L 436.5552 51.22829 M 447.88438 62.15894 L 447.88438 51.22829 M 459.21354 62.15894 L 459.21354 51.22829 M 470.5427 62.15894 L 470.5427 51.22829 "/>
<path transform="matrix(1,0,0,-1,-65.424,336.865)" stroke-width=".3985" stroke-linecap="butt" stroke-miterlimit="10" stroke-linejoin="miter" fill="none" stroke="#000000" d="M 453.54896 23.51152 L 453.54896 47.93535 "/>
<path transform="matrix(0,-1,-1,-0,388.12495,288.92964)" stroke-width=".31879" stroke-linecap="round" stroke-linejoin="round" fill="none" stroke="#000000" d="M -1.19551 1.59401 C -1.09587 .99626 0 .09961 .29886 0 C 0 -.09961 -1.09587 -.99626 -1.19551 -1.59401 "/>
<path transform="matrix(1,0,0,-1,-65.424,336.865)" d="M 425.42533 65.40169 L 481.67259 65.40169 L 481.67259 76.33232 L 425.42533 76.33232 Z M 436.5552 76.33234 L 436.5552 65.40169 M 447.88438 76.33234 L 447.88438 65.40169 M 459.21354 76.33234 L 459.21354 65.40169 M 470.5427 76.33234 L 470.5427 65.40169 " fill="#ccccff"/>
<path transform="matrix(1,0,0,-1,-65.424,336.865)" stroke-width=".3985" stroke-linecap="butt" stroke-miterlimit="10" stroke-linejoin="miter" fill="none" stroke="#0000ff" d="M 425.42533 65.40169 L 481.67259 65.40169 L 481.67259 76.33232 L 425.42533 76.33232 Z M 436.5552 76.33234 L 436.5552 65.40169 M 447.88438 76.33234 L 447.88438 65.40169 M 459.21354 76.33234 L 459.21354 65.40169 M 470.5427 76.33234 L 470.5427 65.40169 "/>
<path transform="matrix(1,0,0,-1,-65.424,336.865)" stroke-width=".3985" stroke-linecap="butt" stroke-miterlimit="10" stroke-linejoin="miter" fill="none" stroke="#000000" d="M 453.54896 79.167 L 453.54896 103.59082 "/>
<path transform="matrix(0,-1,-1,-0,388.12495,233.27417)" stroke-width=".31879" stroke-linecap="round" stroke-linejoin="round" fill="none" stroke="#000000" d="M -1.19551 1.59401 C -1.09587 .99626 0 .09961 .29886 0 C 0 -.09961 -1.09587 -.99626 -1.19551 -1.59401 "/>
<path transform="matrix(1,0,0,-1,-65.424,336.865)" d="M 436.75447 178.78893 L 470.34339 178.78893 L 470.34339 189.71956 L 436.75447 189.71956 Z M 447.88438 189.71958 L 447.88438 178.78893 M 459.21354 189.71958 L 459.21354 178.78893 " fill="#ffe6cc"/>
<path transform="matrix(1,0,0,-1,-65.424,336.865)" stroke-width=".3985" stroke-linecap="butt" stroke-miterlimit="10" stroke-linejoin="miter" fill="none" stroke="#ff8000" d="M 436.75447 178.78893 L 470.34339 178.78893 L 470.34339 189.71956 L 436.75447 189.71956 Z M 447.88438 189.71958 L 447.88438 178.78893 M 459.21354 189.71958 L 459.21354 178.78893 "/>
<path transform="matrix(1,0,0,-1,-65.424,336.865)" stroke-width=".3985" stroke-linecap="butt" stroke-miterlimit="10" stroke-linejoin="miter" fill="none" stroke="#000000" d="M 453.54896 151.07216 L 453.54896 175.49597 "/>
<path transform="matrix(0,-1,-1,-0,388.12495,161.36902)" stroke-width=".31879" stroke-linecap="round" stroke-linejoin="round" fill="none" stroke="#000000" d="M -1.19551 1.59401 C -1.09587 .99626 0 .09961 .29886 0 C 0 -.09961 -1.09587 -.99626 -1.19551 -1.59401 "/>
<path transform="matrix(1,0,0,-1,-65.424,336.865)" stroke-width=".3985" stroke-linecap="butt" stroke-miterlimit="10" stroke-linejoin="miter" fill="none" stroke="#000000" d="M 359.79087 184.25424 L 429.54273 127.84877 "/>
<path transform="matrix(.77756,.62877,.62877,-.77756,364.1187,209.0162)" stroke-width=".31879" stroke-linecap="round" stroke-linejoin="round" fill="none" stroke="#000000" d="M -1.19551 1.59401 C -1.09587 .99626 0 .09961 .29886 0 C 0 -.09961 -1.09587 -.99626 -1.19551 -1.59401 "/>
<path transform="matrix(1,0,0,-1,-65.424,336.865)" stroke-width=".3985" stroke-linecap="butt" stroke-miterlimit="10" stroke-linejoin="miter" fill="none" stroke="#000000" d="M 379.4477 127.56062 L 429.44078 127.56062 "/>
<path transform="matrix(1,0,0,-1,364.01676,209.30437)" stroke-width=".31879" stroke-linecap="round" stroke-linejoin="round" fill="none" stroke="#000000" d="M -1.19551 1.59401 C -1.09587 .99626 0 .09961 .29886 0 C 0 -.09961 -1.09587 -.99626 -1.19551 -1.59401 "/>
<path transform="matrix(1,0,0,-1,-65.424,336.865)" stroke-width=".3985" stroke-linecap="butt" stroke-miterlimit="10" stroke-linejoin="miter" fill="none" stroke="#000000" d="M 477.19886 127.56062 L 527.19198 127.56062 "/>
<path transform="matrix(1,0,0,-1,461.76795,209.30437)" stroke-width=".31879" stroke-linecap="round" stroke-linejoin="round" fill="none" stroke="#000000" d="M -1.19551 1.59401 C -1.09587 .99626 0 .09961 .29886 0 C 0 -.09961 -1.09587 -.99626 -1.19551 -1.59401 "/>
<text xml:space="preserve" transform="matrix(1 0 -0 1 -.000030517579 422.104)" font-size="9.9626" font-family="CMMI10" font-style="italic"><tspan y="-200.356" x="425.45">c</tspan></text>
<text xml:space="preserve" transform="matrix(1 0 -0 1 -.000030517579 422.104)" font-size="6.9738" font-family="CMMI7" font-style="italic"><tspan y="-204.784" x="429.76103">n</tspan></text>
<text xml:space="preserve" transform="matrix(1 0 -0 1 -.000030517579 422.104)" font-size="4.9813" font-family="CMMI5" font-style="italic"><tspan y="-203.788" x="434.686">i</tspan></text>
<text xml:space="preserve" transform="matrix(1 0 -0 1 -.000030517579 422.104)" font-size="6.9738" font-family="CMSY7" font-style="italic"><tspan y="-204.784" x="437.842">&#x2212;</tspan></text>
<text xml:space="preserve" transform="matrix(1 0 -0 1 -.000030517579 422.104)" font-size="6.9738" font-family="CMR7"><tspan y="-204.784" x="444.069">1</tspan></text>
<text xml:space="preserve" transform="matrix(1 0 -0 1 -.000030517579 422.104)" font-size="6.9738" font-family="CMMI7" font-style="italic"><tspan y="-197.579" x="429.761">i</tspan></text>
<path transform="matrix(1,0,0,-1,-65.424,336.865)" stroke-width=".3985" stroke-linecap="butt" stroke-miterlimit="10" stroke-linejoin="miter" fill="none" stroke="#000000" d="M 473.1781 184.25424 L 527.3327 127.89107 "/>
<path transform="matrix(.69281,.72107,.72107,-.69281,461.9087,208.97393)" stroke-width=".31879" stroke-linecap="round" stroke-linejoin="round" fill="none" stroke="#000000" d="M -1.19551 1.59401 C -1.09587 .99626 0 .09961 .29886 0 C 0 -.09961 -1.09587 -.99626 -1.19551 -1.59401 "/>
<path transform="matrix(1,0,0,-1,-65.424,336.865)" d="M 587.23538 258.58055 L 546.637 258.58055 C 538.80917 258.58055 532.4636 252.235 532.4636 244.40715 L 532.4636 237.48859 C 532.4636 229.66074 538.80917 223.31519 546.637 223.31519 L 587.23538 223.31519 C 595.0632 223.31519 601.40878 229.66074 601.40878 237.48859 L 601.40878 244.40715 C 601.40878 252.235 595.0632 258.58055 587.23538 258.58055 Z M 532.4636 223.31519 " fill="#ccffcc"/>
<path transform="matrix(1,0,0,-1,-65.424,336.865)" stroke-width=".3985" stroke-linecap="butt" stroke-miterlimit="10" stroke-linejoin="miter" fill="none" stroke="#00ff00" d="M 587.23538 258.58055 L 546.637 258.58055 C 538.80917 258.58055 532.4636 252.235 532.4636 244.40715 L 532.4636 237.48859 C 532.4636 229.66074 538.80917 223.31519 546.637 223.31519 L 587.23538 223.31519 C 595.0632 223.31519 601.40878 229.66074 601.40878 237.48859 L 601.40878 244.40715 C 601.40878 252.235 595.0632 258.58055 587.23538 258.58055 Z M 532.4636 223.31519 "/>
<text xml:space="preserve" transform="matrix(1 0 -0 1 0 422.104)" font-size="9.9626" font-family="CMR10"><tspan y="-322.724" x="481.206 487.99055 491.89588 496.31929 501.8585 504.62809 509.05149 512.92697 517.90829">Predictor</tspan></text>
<path transform="matrix(1,0,0,-1,-65.424,336.865)" d="M 640.84677 235.48255 L 663.10659 235.48255 L 663.10659 246.41318 L 640.84677 246.41318 Z M 651.9766 246.4132 L 651.9766 235.48255 " fill="#ffe6cc"/>
<path transform="matrix(1,0,0,-1,-65.424,336.865)" stroke-width=".3985" stroke-linecap="butt" stroke-miterlimit="10" stroke-linejoin="miter" fill="none" stroke="#ff8000" d="M 640.84677 235.48255 L 663.10659 235.48255 L 663.10659 246.41318 L 640.84677 246.41318 Z M 651.9766 246.4132 L 651.9766 235.48255 "/>
<text xml:space="preserve" transform="matrix(1 0 -0 1 0 422.104)" font-size="9.9626" font-family="CMR10"><tspan y="-323.825" x="604.712">&#x02dc;</tspan></text>
<text xml:space="preserve" transform="matrix(1 0 -0 1 0 422.104)" font-size="9.9626" font-family="CMMI10" font-style="italic"><tspan y="-323.825" x="604.02798">y</tspan></text>
<text xml:space="preserve" transform="matrix(1 0 -0 1 0 422.104)" font-size="6.9738" font-family="CMMI7" font-style="italic"><tspan y="-322.33103" x="608.91299">i</tspan></text>
<path transform="matrix(1,0,0,-1,-65.424,336.865)" d="M 640.84677 249.65596 L 663.10659 249.65596 L 663.10659 260.58659 L 640.84677 260.58659 Z M 651.9766 260.5866 L 651.9766 249.65596 " fill="#ccccff"/>
<path transform="matrix(1,0,0,-1,-65.424,336.865)" stroke-width=".3985" stroke-linecap="butt" stroke-miterlimit="10" stroke-linejoin="miter" fill="none" stroke="#0000ff" d="M 640.84677 249.65596 L 663.10659 249.65596 L 663.10659 260.58659 L 640.84677 260.58659 Z M 651.9766 260.5866 L 651.9766 249.65596 "/>
<text xml:space="preserve" transform="matrix(1 0 -0 1 0 422.104)" font-size="9.9626" font-family="CMMI10" font-style="italic"><tspan y="-339.181" x="604.028">y</tspan></text>
<text xml:space="preserve" transform="matrix(1 0 -0 1 0 422.104)" font-size="6.9738" font-family="CMMI7" font-style="italic"><tspan y="-337.686" x="608.913">i</tspan></text>
<path transform="matrix(1,0,0,-1,-65.424,336.865)" stroke-width=".3985" stroke-linecap="butt" stroke-miterlimit="10" stroke-linejoin="miter" fill="none" stroke="#000000" d="M 604.2434 240.94788 L 637.5538 240.94788 "/>
<path transform="matrix(1,0,0,-1,572.12979,95.917118)" stroke-width=".31879" stroke-linecap="round" stroke-linejoin="round" fill="none" stroke="#000000" d="M -1.19551 1.59401 C -1.09587 .99626 0 .09961 .29886 0 C 0 -.09961 -1.09587 -.99626 -1.19551 -1.59401 "/>
<path transform="matrix(1,0,0,-1,-65.424,336.865)" stroke-width=".3985" stroke-linecap="butt" stroke-miterlimit="10" stroke-linejoin="miter" fill="none" stroke="#000000" d="M 566.9362 192.55425 L 566.9362 220.02223 "/>
<path transform="matrix(0,-1,-1,-0,501.5122,116.84276)" stroke-width=".31879" stroke-linecap="round" stroke-linejoin="round" fill="none" stroke="#000000" d="M -1.19551 1.59401 C -1.09587 .99626 0 .09961 .29886 0 C 0 -.09961 -1.09587 -.99626 -1.19551 -1.59401 "/>
<path transform="matrix(1,0,0,-1,-65.424,336.865)" stroke-width=".3985" stroke-linecap="butt" stroke-miterlimit="10" stroke-linejoin="miter" fill="none" stroke="#000000" d="M 586.56539 184.25424 L 651.9766 184.25424 L 651.9766 -85.04042 L 226.77448 -85.04042 L 113.79614 -27.89717 "/>
<path transform="matrix(-.89232,-.45131,-.45131,.89232,48.372156,364.76216)" stroke-width=".31879" stroke-linecap="round" stroke-linejoin="round" fill="none" stroke="#000000" d="M -1.19551 1.59401 C -1.09587 .99626 0 .09961 .29886 0 C 0 -.09961 -1.09587 -.99626 -1.19551 -1.59401 "/>
<path transform="matrix(1,0,0,-1,-65.424,336.865)" stroke-width=".3985" stroke-linecap="butt" stroke-miterlimit="10" stroke-linejoin="miter" fill="none" stroke="#000000" d="M 586.56539 184.25424 L 651.9766 184.25424 L 651.9766 -85.04042 L 340.1617 -85.04042 L 227.1834 -27.89717 "/>
<path transform="matrix(-.89232,-.45131,-.45131,.89232,161.7594,364.76216)" stroke-width=".31879" stroke-linecap="round" stroke-linejoin="round" fill="none" stroke="#000000" d="M -1.19551 1.59401 C -1.09587 .99626 0 .09961 .29886 0 C 0 -.09961 -1.09587 -.99626 -1.19551 -1.59401 "/>
<path transform="matrix(1,0,0,-1,-65.424,336.865)" stroke-width=".3985" stroke-linecap="butt" stroke-miterlimit="10" stroke-linejoin="miter" fill="none" stroke="#000000" d="M 586.56539 184.25424 L 651.9766 184.25424 L 651.9766 -85.04042 L 453.54896 -85.04042 L 340.57063 -27.89717 "/>
<path transform="matrix(-.89232,-.45131,-.45131,.89232,275.14665,364.76216)" stroke-width=".31879" stroke-linecap="round" stroke-linejoin="round" fill="none" stroke="#000000" d="M -1.19551 1.59401 C -1.09587 .99626 0 .09961 .29886 0 C 0 -.09961 -1.09587 -.99626 -1.19551 -1.59401 "/>
<path transform="matrix(1,0,0,-1,-65.424,336.865)" stroke-width=".3985" stroke-linecap="butt" stroke-miterlimit="10" stroke-linejoin="miter" fill="none" stroke="#000000" d="M 586.56539 184.25424 L 651.9766 184.25424 L 651.9766 -85.04042 L 567.3161 -27.94656 "/>
<path transform="matrix(-.82907,-.5591,-.5591,.82907,501.8921,364.81156)" stroke-width=".31879" stroke-linecap="round" stroke-linejoin="round" fill="none" stroke="#000000" d="M -1.19551 1.59401 C -1.09587 .99626 0 .09961 .29886 0 C 0 -.09961 -1.09587 -.99626 -1.19551 -1.59401 "/>
<path transform="matrix(1,0,0,-1,-65.424,336.865)" d="M 442.41905 278.00276 L 464.67884 278.00276 L 464.67884 288.93339 L 442.41905 288.93339 Z M 453.54896 288.9334 L 453.54896 278.00276 " fill="#ffe6cc"/>
<path transform="matrix(1,0,0,-1,-65.424,336.865)" stroke-width=".3985" stroke-linecap="butt" stroke-miterlimit="10" stroke-linejoin="miter" fill="none" stroke="#ff8000" d="M 442.41905 278.00276 L 464.67884 278.00276 L 464.67884 288.93339 L 442.41905 288.93339 Z M 453.54896 288.9334 L 453.54896 278.00276 "/>
<text xml:space="preserve" transform="matrix(1 0 -0 1 0 422.104)" font-size="9.9626" font-family="CMMI10" font-style="italic"><tspan y="-366.691" x="361.305">z</tspan></text>
<text xml:space="preserve" transform="matrix(1 0 -0 1 0 422.104)" font-size="6.9738" font-family="CMMI7" font-style="italic"><tspan y="-370.306" x="366.37699">s</tspan><tspan y="-364.098" x="365.938">i</tspan></text>
<path transform="matrix(1,0,0,-1,-65.424,336.865)" d="M 357.95634 279.97697 L 322.36708 279.97697 C 314.5392 279.97697 308.1937 273.6314 308.1937 265.80357 L 308.1937 244.43898 C 308.1937 236.61115 314.5392 230.2656 322.36708 230.2656 L 357.95634 230.2656 C 365.7842 230.2656 372.12977 236.61115 372.12977 244.43898 L 372.12977 265.80357 C 372.12977 273.6314 365.7842 279.97697 357.95634 279.97697 Z M 308.1937 230.2656 " fill="#ccffcc"/>
<path transform="matrix(1,0,0,-1,-65.424,336.865)" stroke-width=".3985" stroke-linecap="butt" stroke-miterlimit="10" stroke-linejoin="miter" fill="none" stroke="#00ff00" d="M 357.95634 279.97697 L 322.36708 279.97697 C 314.5392 279.97697 308.1937 273.6314 308.1937 265.80357 L 308.1937 244.43898 C 308.1937 236.61115 314.5392 230.2656 322.36708 230.2656 L 357.95634 230.2656 C 365.7842 230.2656 372.12977 236.61115 372.12977 244.43898 L 372.12977 265.80357 C 372.12977 273.6314 365.7842 279.97697 357.95634 279.97697 Z M 308.1937 230.2656 "/>
<text xml:space="preserve" transform="matrix(1 0 -0 1 0 422.104)" font-size="9.9626" font-family="CMR10"><tspan y="-344.121" x="256.939 264.5504 268.97383 273.39723 278.65748 284.1967 288.6201">Decoder</tspan><tspan y="-332.165" x="258.931 262.80647 266.73173 270.60719 275.58848 279.46394 282.23353 286.65693">(static)</tspan></text>
<path transform="matrix(1,0,0,-1,-65.424,336.865)" d="M 358.09474 336.6706 L 322.2287 336.6706 C 314.40086 336.6706 308.0553 330.32505 308.0553 322.4972 L 308.0553 301.1326 C 308.0553 293.30476 314.40086 286.9592 322.2287 286.9592 L 358.09474 286.9592 C 365.92259 286.9592 372.26814 293.30476 372.26814 301.1326 L 372.26814 322.4972 C 372.26814 330.32505 365.92259 336.6706 358.09474 336.6706 Z M 308.0553 286.9592 " fill="#ccffcc"/>
<path transform="matrix(1,0,0,-1,-65.424,336.865)" stroke-width=".3985" stroke-linecap="butt" stroke-miterlimit="10" stroke-linejoin="miter" fill="none" stroke="#00ff00" d="M 358.09474 336.6706 L 322.2287 336.6706 C 314.40086 336.6706 308.0553 330.32505 308.0553 322.4972 L 308.0553 301.1326 C 308.0553 293.30476 314.40086 286.9592 322.2287 286.9592 L 358.09474 286.9592 C 365.92259 286.9592 372.26814 293.30476 372.26814 301.1326 L 372.26814 322.4972 C 372.26814 330.32505 365.92259 336.6706 358.09474 336.6706 Z M 308.0553 286.9592 "/>
<text xml:space="preserve" transform="matrix(1 0 -0 1 0 422.104)" font-size="9.9626" font-family="CMR10"><tspan y="-400.813" x="256.801 263.58555 269.12477 273.54817 278.8084 284.34764 288.77104">Encoder</tspan><tspan y="-388.858" x="258.931 262.80647 266.73173 270.60719 275.58848 279.46394 282.23353 286.65693">(static)</tspan></text>
<path transform="matrix(1,0,0,-1,-65.424,336.865)" stroke-width=".3985" stroke-linecap="butt" stroke-miterlimit="10" stroke-linejoin="miter" fill="none" stroke="#000000" d="M 467.51353 283.4681 L 529.2508 241.20671 "/>
<path transform="matrix(.82515,.56483,.56483,-.82515,463.82679,95.658267)" stroke-width=".31879" stroke-linecap="round" stroke-linejoin="round" fill="none" stroke="#000000" d="M -1.19551 1.59401 C -1.09587 .99626 0 .09961 .29886 0 C 0 -.09961 -1.09587 -.99626 -1.19551 -1.59401 "/>
<path transform="matrix(1,0,0,-1,-65.424,336.865)" stroke-width=".3985" stroke-linecap="butt" stroke-miterlimit="10" stroke-linejoin="miter" fill="none" stroke="#000000" d="M 375.10279 311.8149 L 453.10499 291.88154 "/>
<path transform="matrix(.96883,.24756,.24756,-.96883,387.68098,44.98346)" stroke-width=".31879" stroke-linecap="round" stroke-linejoin="round" fill="none" stroke="#000000" d="M -1.19551 1.59401 C -1.09587 .99626 0 .09961 .29886 0 C 0 -.09961 -1.09587 -.99626 -1.19551 -1.59401 "/>
<path transform="matrix(1,0,0,-1,-65.424,336.865)" stroke-width=".3985" stroke-linecap="butt" stroke-miterlimit="10" stroke-linejoin="miter" fill="none" stroke="#000000" d="M 453.54896 275.1681 L 375.40846 255.23455 "/>
<path transform="matrix(-.96893,.24715,.24715,.96893,309.98445,81.63043)" stroke-width=".31879" stroke-linecap="round" stroke-linejoin="round" fill="none" stroke="#000000" d="M -1.19551 1.59401 C -1.09587 .99626 0 .09961 .29886 0 C 0 -.09961 -1.09587 -.99626 -1.19551 -1.59401 "/>
<path transform="matrix(1,0,0,-1,-65.424,336.865)" d="M 198.65085 285.08946 L 254.8981 285.08946 L 254.8981 296.02009 L 198.65085 296.02009 Z M 209.78075 296.0201 L 209.78075 285.08946 M 221.1099 296.0201 L 221.1099 285.08946 M 232.43904 296.0201 L 232.43904 285.08946 M 243.7682 296.0201 L 243.7682 285.08946 " fill="#ccccff"/>
<path transform="matrix(1,0,0,-1,-65.424,336.865)" stroke-width=".3985" stroke-linecap="butt" stroke-miterlimit="10" stroke-linejoin="miter" fill="none" stroke="#0000ff" d="M 198.65085 285.08946 L 254.8981 285.08946 L 254.8981 296.02009 L 198.65085 296.02009 Z M 209.78075 296.0201 L 209.78075 285.08946 M 221.1099 296.0201 L 221.1099 285.08946 M 232.43904 296.0201 L 232.43904 285.08946 M 243.7682 296.0201 L 243.7682 285.08946 "/>
<text xml:space="preserve" transform="matrix(1 0 -0 1 -.0000076293949 422.104)" font-size="9.9626" font-family="CMMI10" font-style="italic"><tspan y="-373.778" x="116.918">x</tspan></text>
<text xml:space="preserve" transform="matrix(1 0 -0 1 -.0000076293949 422.104)" font-size="6.9738" font-family="CMMI7" font-style="italic"><tspan y="-377.393" x="122.612">s</tspan><tspan y="-371.184" x="122.612">i</tspan></text>
<path transform="matrix(1,0,0,-1,-65.424,336.865)" d="M 198.65085 270.91606 L 254.8981 270.91606 L 254.8981 281.84669 L 198.65085 281.84669 Z M 209.78075 281.8467 L 209.78075 270.91606 M 221.1099 281.8467 L 221.1099 270.91606 M 232.43904 281.8467 L 232.43904 270.91606 M 243.7682 281.8467 L 243.7682 270.91606 " fill="#ffe6cc"/>
<path transform="matrix(1,0,0,-1,-65.424,336.865)" stroke-width=".3985" stroke-linecap="butt" stroke-miterlimit="10" stroke-linejoin="miter" fill="none" stroke="#ff8000" d="M 198.65085 270.91606 L 254.8981 270.91606 L 254.8981 281.84669 L 198.65085 281.84669 Z M 209.78075 281.8467 L 209.78075 270.91606 M 221.1099 281.8467 L 221.1099 270.91606 M 232.43904 281.8467 L 232.43904 270.91606 M 243.7682 281.8467 L 243.7682 270.91606 "/>
<text xml:space="preserve" transform="matrix(1 0 -0 1 -.0000076293949 422.104)" font-size="9.9626" font-family="CMR10"><tspan y="-359.587" x="117.551">&#x02dc;</tspan></text>
<text xml:space="preserve" transform="matrix(1 0 -0 1 -.0000076293949 422.104)" font-size="9.9626" font-family="CMMI10" font-style="italic"><tspan y="-359.587" x="116.918">x</tspan></text>
<text xml:space="preserve" transform="matrix(1 0 -0 1 -.0000076293949 422.104)" font-size="6.9738" font-family="CMMI7" font-style="italic"><tspan y="-363.202" x="122.612">s</tspan><tspan y="-356.99299" x="122.612">i</tspan></text>
<path transform="matrix(1,0,0,-1,-65.424,336.865)" stroke-width=".3985" stroke-linecap="butt" stroke-miterlimit="10" stroke-linejoin="miter" fill="none" stroke="#000000" d="M 305.359 255.12128 L 227.22661 268.00685 "/>
<path transform="matrix(-.98662,-.16269,-.16269,.98662,161.80261,68.858158)" stroke-width=".31879" stroke-linecap="round" stroke-linejoin="round" fill="none" stroke="#000000" d="M -1.19551 1.59401 C -1.09587 .99626 0 .09961 .29886 0 C 0 -.09961 -1.09587 -.99626 -1.19551 -1.59401 "/>
<path transform="matrix(1,0,0,-1,-65.424,336.865)" stroke-width=".3985" stroke-linecap="butt" stroke-miterlimit="10" stroke-linejoin="miter" fill="none" stroke="#000000" d="M 226.77448 298.85478 L 304.76853 311.74024 "/>
<path transform="matrix(.98659,-.16296,-.16296,-.98659,239.34449,25.124756)" stroke-width=".31879" stroke-linecap="round" stroke-linejoin="round" fill="none" stroke="#000000" d="M -1.19551 1.59401 C -1.09587 .99626 0 .09961 .29886 0 C 0 -.09961 -1.09587 -.99626 -1.19551 -1.59401 "/>
</g>
</svg>
